<?xml version="1.0" encoding="UTF-8"?>
<svg version="1.1" xmlns="http://www.w3.org/2000/svg" width="321" height="358">
<path d="M0 0 C5.18589123 2.85091724 10.22090326 5.94734154 15.234375 9.08984375 C20.1908227 12.18295522 25.22184324 15.15043676 30.25 18.125 C31.1560498 18.66326416 32.06209961 19.20152832 32.99560547 19.75610352 C38.44804898 22.97836055 43.95629072 26.06913565 49.52587891 29.08398438 C53.30265893 31.14159513 57.03035312 33.27871663 60.75 35.4375 C61.53632813 35.89278076 62.32265625 36.34806152 63.1328125 36.81713867 C71.22021821 41.51997133 79.23342499 46.34643029 87.23291016 51.19702148 C92.92014278 54.63246343 98.65565066 57.92409623 104.50390625 61.07739258 C136.4260879 78.40326371 136.4260879 78.40326371 138.125 83.5 C138.785 83.5 139.445 83.5 140.125 83.5 C142.87296772 90.42965773 144.24729789 96.41384468 144.25871277 103.93147278 C144.26297775 105.20566574 144.26724274 106.4798587 144.27163696 107.79266357 C144.2712875 109.19226077 144.270826 110.59185795 144.27026367 111.99145508 C144.27325806 113.47525619 144.27666123 114.95905652 144.28044128 116.44285583 C144.28925736 120.46364194 144.2916184 124.48440674 144.29225707 128.50520158 C144.29296897 131.02029722 144.29510594 133.53538749 144.29775429 136.0504818 C144.30700001 144.83354408 144.31109017 153.61659121 144.31030273 162.3996582 C144.30970225 170.5725516 144.32025033 178.74537894 144.3360464 186.91825563 C144.34914441 193.94691235 144.35448568 200.97554754 144.35384732 208.00421637 C144.35359299 212.19684816 144.35640849 216.38942121 144.36702538 220.58204079 C144.37674441 224.52765453 144.37675959 228.47315384 144.36950874 232.41877174 C144.3684676 233.86146208 144.37079769 235.30415968 144.3768692 236.74683762 C144.45459476 256.50560785 144.45459476 256.50560785 139.125 264.5 C133.28146827 269.76652583 126.23543437 273.45442997 119.41223145 277.27633667 C116.27246999 279.0351356 113.14269005 280.81155334 110.01171875 282.5859375 C109.40292877 282.93033371 108.79413879 283.27472992 108.16690063 283.62956238 C103.69364907 286.16423646 99.26565449 288.76278999 94.875 291.4375 C89.18077933 294.89778311 83.40978531 298.19176668 77.57519531 301.40795898 C74.74554697 302.97726706 72.02734235 304.56634127 69.34765625 306.38671875 C65.69588325 308.78139656 61.92063763 310.81926611 58.078125 312.88916016 C53.19932527 315.55039698 48.41689097 318.37368457 43.625 321.1875 C41.51054501 322.42469853 39.3959601 323.66167506 37.28125 324.8984375 C36.24226562 325.50655273 35.20328125 326.11466797 34.1328125 326.74121094 C23.83251986 332.76420673 13.50796925 338.74550156 3.125 344.625 C2.45984375 345.00374268 1.7946875 345.38248535 1.109375 345.77270508 C-4.57194075 348.97366699 -9.33409079 350.68603766 -15.875 349.5 C-27.21453192 344.94382444 -37.74182556 338.23703617 -48.24560547 332.04785156 C-52.96804132 329.26788468 -57.70383673 326.5107896 -62.4375 323.75 C-63.44103516 323.16395996 -64.44457031 322.57791992 -65.47851562 321.97412109 C-72.93004311 317.62504014 -80.39884392 313.30658264 -87.875 309 C-101.31691881 301.25592734 -114.71665952 293.44065766 -128.10791016 285.609375 C-130.28835612 284.33434375 -132.46901811 283.05968186 -134.64990234 281.78540039 C-136.69109373 280.59273576 -138.73181836 279.39927178 -140.77197266 278.20483398 C-146.4339922 274.89700191 -152.12693474 271.65606179 -157.875 268.5 C-157.875 267.84 -157.875 267.18 -157.875 266.5 C-158.865 266.17 -159.855 265.84 -160.875 265.5 C-168.21924342 255.70767544 -167.17518567 242.02497879 -167.16552734 230.33740234 C-167.17152859 228.8656633 -167.17833774 227.39392737 -167.18588257 225.92219543 C-167.20337721 221.96572405 -167.20823058 218.00933942 -167.20951414 214.05283308 C-167.21094457 211.57369196 -167.21523062 209.0945723 -167.22050858 206.61543655 C-167.23894672 197.94673533 -167.24718611 189.27809519 -167.24560547 180.609375 C-167.24440239 172.55841927 -167.26555324 164.50773086 -167.2970928 156.45684278 C-167.32330989 149.5146276 -167.33397065 142.57249957 -167.33269465 135.63023531 C-167.33218707 131.49681624 -167.33775819 127.36363582 -167.35905075 123.23026657 C-167.37852808 119.34435816 -167.37849359 115.45891407 -167.36401749 111.57298851 C-167.36194073 110.15531542 -167.36656201 108.73761248 -167.3787384 107.31999016 C-167.44979268 98.46793723 -167.30276979 88.87231048 -161.38568687 81.69298363 C-159.66113523 80.04905538 -157.87360923 78.80101439 -155.875 77.5 C-154.89917969 76.86449219 -153.92335937 76.22898437 -152.91796875 75.57421875 C-147.94626165 72.44257406 -142.91828339 69.5096907 -137.75390625 66.7109375 C-131.45730064 63.29513885 -125.25913523 59.71817194 -119.0625 56.125 C-116.74641561 54.7845992 -114.42982153 53.44508173 -112.11328125 52.10546875 C-111.02225098 51.47431152 -109.9312207 50.8431543 -108.80712891 50.19287109 C-105.46192358 48.26150942 -102.10809061 46.34635299 -98.75 44.4375 C-84.69530284 36.42098975 -70.76002725 28.19496703 -56.80444336 20.00756836 C-50.82955633 16.50232336 -44.85270266 13.0004408 -38.875 9.5 C-37.85712402 8.90364746 -36.83924805 8.30729492 -35.79052734 7.69287109 C-33.1121969 6.12538993 -30.43161962 4.56184553 -27.75 3 C-26.98067139 2.54923096 -26.21134277 2.09846191 -25.41870117 1.6340332 C-16.81244911 -3.36433169 -9.15957436 -4.48855636 0 0 Z " fill="#FDFDFD" transform="translate(172.875,5.5)"/>
<path d="M0 0 C5.18589123 2.85091724 10.22090326 5.94734154 15.234375 9.08984375 C20.1908227 12.18295522 25.22184324 15.15043676 30.25 18.125 C31.1560498 18.66326416 32.06209961 19.20152832 32.99560547 19.75610352 C38.44804898 22.97836055 43.95629072 26.06913565 49.52587891 29.08398438 C53.30265893 31.14159513 57.03035312 33.27871663 60.75 35.4375 C61.53632813 35.89278076 62.32265625 36.34806152 63.1328125 36.81713867 C71.22021821 41.51997133 79.23342499 46.34643029 87.23291016 51.19702148 C92.92014278 54.63246343 98.65565066 57.92409623 104.50390625 61.07739258 C136.4260879 78.40326371 136.4260879 78.40326371 138.125 83.5 C138.785 83.5 139.445 83.5 140.125 83.5 C142.87296772 90.42965773 144.24729789 96.41384468 144.25871277 103.93147278 C144.26297775 105.20566574 144.26724274 106.4798587 144.27163696 107.79266357 C144.2712875 109.19226077 144.270826 110.59185795 144.27026367 111.99145508 C144.27325806 113.47525619 144.27666123 114.95905652 144.28044128 116.44285583 C144.28925736 120.46364194 144.2916184 124.48440674 144.29225707 128.50520158 C144.29296897 131.02029722 144.29510594 133.53538749 144.29775429 136.0504818 C144.30700001 144.83354408 144.31109017 153.61659121 144.31030273 162.3996582 C144.30970225 170.5725516 144.32025033 178.74537894 144.3360464 186.91825563 C144.34914441 193.94691235 144.35448568 200.97554754 144.35384732 208.00421637 C144.35359299 212.19684816 144.35640849 216.38942121 144.36702538 220.58204079 C144.37674441 224.52765453 144.37675959 228.47315384 144.36950874 232.41877174 C144.3684676 233.86146208 144.37079769 235.30415968 144.3768692 236.74683762 C144.45459476 256.50560785 144.45459476 256.50560785 139.125 264.5 C133.28146827 269.76652583 126.23543437 273.45442997 119.41223145 277.27633667 C116.27246999 279.0351356 113.14269005 280.81155334 110.01171875 282.5859375 C109.40292877 282.93033371 108.79413879 283.27472992 108.16690063 283.62956238 C103.69364907 286.16423646 99.26565449 288.76278999 94.875 291.4375 C89.18077933 294.89778311 83.40978531 298.19176668 77.57519531 301.40795898 C74.74554697 302.97726706 72.02734235 304.56634127 69.34765625 306.38671875 C65.69588325 308.78139656 61.92063763 310.81926611 58.078125 312.88916016 C53.19932527 315.55039698 48.41689097 318.37368457 43.625 321.1875 C41.51054501 322.42469853 39.3959601 323.66167506 37.28125 324.8984375 C36.24226562 325.50655273 35.20328125 326.11466797 34.1328125 326.74121094 C23.83251986 332.76420673 13.50796925 338.74550156 3.125 344.625 C2.45984375 345.00374268 1.7946875 345.38248535 1.109375 345.77270508 C-4.57194075 348.97366699 -9.33409079 350.68603766 -15.875 349.5 C-27.21453192 344.94382444 -37.74182556 338.23703617 -48.24560547 332.04785156 C-52.96804132 329.26788468 -57.70383673 326.5107896 -62.4375 323.75 C-63.44103516 323.16395996 -64.44457031 322.57791992 -65.47851562 321.97412109 C-72.93004311 317.62504014 -80.39884392 313.30658264 -87.875 309 C-101.31691881 301.25592734 -114.71665952 293.44065766 -128.10791016 285.609375 C-130.28835612 284.33434375 -132.46901811 283.05968186 -134.64990234 281.78540039 C-136.69109373 280.59273576 -138.73181836 279.39927178 -140.77197266 278.20483398 C-146.4339922 274.89700191 -152.12693474 271.65606179 -157.875 268.5 C-157.875 267.84 -157.875 267.18 -157.875 266.5 C-158.865 266.17 -159.855 265.84 -160.875 265.5 C-168.21924342 255.70767544 -167.17518567 242.02497879 -167.16552734 230.33740234 C-167.17152859 228.8656633 -167.17833774 227.39392737 -167.18588257 225.92219543 C-167.20337721 221.96572405 -167.20823058 218.00933942 -167.20951414 214.05283308 C-167.21094457 211.57369196 -167.21523062 209.0945723 -167.22050858 206.61543655 C-167.23894672 197.94673533 -167.24718611 189.27809519 -167.24560547 180.609375 C-167.24440239 172.55841927 -167.26555324 164.50773086 -167.2970928 156.45684278 C-167.32330989 149.5146276 -167.33397065 142.57249957 -167.33269465 135.63023531 C-167.33218707 131.49681624 -167.33775819 127.36363582 -167.35905075 123.23026657 C-167.37852808 119.34435816 -167.37849359 115.45891407 -167.36401749 111.57298851 C-167.36194073 110.15531542 -167.36656201 108.73761248 -167.3787384 107.31999016 C-167.44979268 98.46793723 -167.30276979 88.87231048 -161.38568687 81.69298363 C-159.66113523 80.04905538 -157.87360923 78.80101439 -155.875 77.5 C-154.89917969 76.86449219 -153.92335937 76.22898437 -152.91796875 75.57421875 C-147.94626165 72.44257406 -142.91828339 69.5096907 -137.75390625 66.7109375 C-131.45730064 63.29513885 -125.25913523 59.71817194 -119.0625 56.125 C-116.74641561 54.7845992 -114.42982153 53.44508173 -112.11328125 52.10546875 C-111.02225098 51.47431152 -109.9312207 50.8431543 -108.80712891 50.19287109 C-105.46192358 48.26150942 -102.10809061 46.34635299 -98.75 44.4375 C-84.69530284 36.42098975 -70.76002725 28.19496703 -56.80444336 20.00756836 C-50.82955633 16.50232336 -44.85270266 13.0004408 -38.875 9.5 C-37.85712402 8.90364746 -36.83924805 8.30729492 -35.79052734 7.69287109 C-33.1121969 6.12538993 -30.43161962 4.56184553 -27.75 3 C-26.98067139 2.54923096 -26.21134277 2.09846191 -25.41870117 1.6340332 C-16.81244911 -3.36433169 -9.15957436 -4.48855636 0 0 Z M-37.875 25.5 C-39.76928642 26.61721036 -41.66513777 27.73177131 -43.5625 28.84375 C-47.32369023 31.05176225 -51.0771948 33.2719413 -54.82421875 35.50390625 C-59.96092784 38.55927223 -65.13905759 41.53244799 -70.3359375 44.484375 C-81.31412142 50.72327376 -92.21713491 57.0954573 -103.09326172 63.51025391 C-110.48817413 67.86916201 -117.90665601 72.18756656 -125.3269043 76.50317383 C-127.24847911 77.62217738 -129.16868475 78.74353597 -131.08740234 79.86743164 C-132.95425112 80.96075952 -134.82441436 82.04844651 -136.69775391 83.13061523 C-137.58253418 83.64825439 -138.46731445 84.16589355 -139.37890625 84.69921875 C-140.16209229 85.15385498 -140.94527832 85.60849121 -141.75219727 86.0769043 C-146.80648432 89.46522393 -149.92807042 93.78496314 -151.875 99.5 C-152.17872539 102.45984671 -152.17872539 102.45984671 -152.14242554 105.66609192 C-152.15095551 106.90669876 -152.15948547 108.1473056 -152.16827393 109.42550659 C-152.16757496 110.79254163 -152.16665193 112.15957657 -152.16552734 113.52661133 C-152.17151458 114.97248175 -152.17832057 116.41834899 -152.18588257 117.86421204 C-152.20353106 121.78583278 -152.20823749 125.70736622 -152.20951414 129.62902284 C-152.21093707 132.08129611 -152.21520939 134.53354727 -152.22050858 136.98581505 C-152.23900579 145.54727967 -152.24717967 154.10868207 -152.24560547 162.67016602 C-152.24440449 170.64035474 -152.2654989 178.61027248 -152.2970928 186.58039266 C-152.32327947 193.43153013 -152.33397175 200.28257924 -152.33269465 207.13376635 C-152.33218567 211.22193761 -152.33783302 215.30986803 -152.35905075 219.39798927 C-152.37847337 223.24520765 -152.37853053 227.09195648 -152.36401749 230.93919182 C-152.36193317 232.34683038 -152.36660781 233.75449865 -152.3787384 235.16208649 C-152.44717568 243.65719443 -152.38779836 250.56232746 -146.38472557 257.13058186 C-141.60547233 261.7436347 -135.51324767 264.78529384 -129.75457764 267.98904419 C-127.25377074 269.38040206 -124.762708 270.78882245 -122.27081299 272.19606018 C-120.99229459 272.91783171 -119.7132807 273.63872623 -118.43377686 274.35874939 C-112.50291833 277.69829668 -106.62145767 281.11965937 -100.75 284.5625 C-92.5408025 289.36858224 -84.30937555 294.13388126 -76.0625 298.875 C-67.53733021 303.77764536 -59.05727549 308.74911976 -50.60858154 313.78179932 C-46.71377209 316.09745777 -42.80838345 318.39529598 -38.90576172 320.69775391 C-36.12207468 322.35307675 -33.35859451 324.03759582 -30.59765625 325.73046875 C-19.05910876 332.68743794 -19.05910876 332.68743794 -5.875 332.5 C2.17540735 329.07575217 9.73641152 324.51727787 17.25 320.0625 C19.35640401 318.82359487 21.46318826 317.58533602 23.5703125 316.34765625 C24.64829102 315.71359863 25.72626953 315.07954102 26.83691406 314.42626953 C32.2496434 311.2553136 37.68767061 308.12852183 43.125 305 C52.45823792 299.62461531 61.77151426 294.21638864 71.06835938 288.77832031 C77.44466326 285.05215459 83.84097588 281.36255723 90.24755859 277.6887207 C98.72218807 272.82410941 107.18975301 267.95451428 115.5 262.8125 C116.12970703 262.42674805 116.75941406 262.04099609 117.40820312 261.64355469 C123.80364457 257.62756199 127.29349505 253.95080061 129.125 246.5 C129.56221744 241.77982558 129.54623871 237.06841518 129.52905273 232.33227539 C129.5347631 230.90728726 129.54172994 229.4823037 129.54985046 228.05732727 C129.5677233 224.20601334 129.56662468 220.35492797 129.56090808 216.5035851 C129.55780775 213.28054475 129.56391802 210.05754777 129.56994683 206.8345136 C129.58397109 199.22728519 129.58244824 191.62016913 129.57104492 184.01293945 C129.559565 176.18186111 129.57364189 168.35112529 129.6004414 160.52009207 C129.62263792 153.7801187 129.62922692 147.04025253 129.62336498 140.30024523 C129.62000372 136.28196437 129.62235491 132.26390305 129.63961601 128.24565315 C129.65514646 124.46567144 129.65106282 120.68619503 129.63231087 116.90623283 C129.62864179 115.52482063 129.63168413 114.14337048 129.64219666 112.76199341 C129.70174804 104.28490284 129.47718536 96.45171481 123.63478756 89.80450535 C118.87744431 85.22070641 112.73117813 82.19686475 107.00457764 79.01095581 C104.50377074 77.61959794 102.012708 76.21117755 99.52081299 74.80393982 C98.24229459 74.08216829 96.9632807 73.36127377 95.68377686 72.64125061 C89.75291833 69.30170332 83.87145767 65.88034063 78 62.4375 C69.79080195 57.63141744 61.55933575 52.86618849 53.3125 48.125 C44.16469 42.86335703 35.06897746 37.5207532 26 32.125 C18.57545443 27.71056294 11.14775105 23.3080479 3.625 19.0625 C2.99062012 18.7030127 2.35624023 18.34352539 1.70263672 17.97314453 C-13.46373261 9.49518251 -24.59599394 17.48355458 -37.875 25.5 Z " fill="#F9B2B1" transform="translate(172.875,5.5)"/>
<path d="M0 0 C5.18589123 2.85091724 10.22090326 5.94734154 15.234375 9.08984375 C20.1908227 12.18295522 25.22184324 15.15043676 30.25 18.125 C31.1560498 18.66326416 32.06209961 19.20152832 32.99560547 19.75610352 C38.44804898 22.97836055 43.95629072 26.06913565 49.52587891 29.08398438 C53.30265893 31.14159513 57.03035312 33.27871663 60.75 35.4375 C61.53632813 35.89278076 62.32265625 36.34806152 63.1328125 36.81713867 C71.22021821 41.51997133 79.23342499 46.34643029 87.23291016 51.19702148 C92.92014278 54.63246343 98.65565066 57.92409623 104.50390625 61.07739258 C136.4260879 78.40326371 136.4260879 78.40326371 138.125 83.5 C138.785 83.5 139.445 83.5 140.125 83.5 C142.87296772 90.42965773 144.24729789 96.41384468 144.25871277 103.93147278 C144.26297775 105.20566574 144.26724274 106.4798587 144.27163696 107.79266357 C144.2712875 109.19226077 144.270826 110.59185795 144.27026367 111.99145508 C144.27325806 113.47525619 144.27666123 114.95905652 144.28044128 116.44285583 C144.28925736 120.46364194 144.2916184 124.48440674 144.29225707 128.50520158 C144.29296897 131.02029722 144.29510594 133.53538749 144.29775429 136.0504818 C144.30700001 144.83354408 144.31109017 153.61659121 144.31030273 162.3996582 C144.30970225 170.5725516 144.32025033 178.74537894 144.3360464 186.91825563 C144.34914441 193.94691235 144.35448568 200.97554754 144.35384732 208.00421637 C144.35359299 212.19684816 144.35640849 216.38942121 144.36702538 220.58204079 C144.37674441 224.52765453 144.37675959 228.47315384 144.36950874 232.41877174 C144.3684676 233.86146208 144.37079769 235.30415968 144.3768692 236.74683762 C144.45459476 256.50560785 144.45459476 256.50560785 139.125 264.5 C133.28146827 269.76652583 126.23543437 273.45442997 119.41223145 277.27633667 C116.27246999 279.0351356 113.14269005 280.81155334 110.01171875 282.5859375 C109.40292877 282.93033371 108.79413879 283.27472992 108.16690063 283.62956238 C103.69364907 286.16423646 99.26565449 288.76278999 94.875 291.4375 C89.18077933 294.89778311 83.40978531 298.19176668 77.57519531 301.40795898 C74.74554697 302.97726706 72.02734235 304.56634127 69.34765625 306.38671875 C65.69588325 308.78139656 61.92063763 310.81926611 58.078125 312.88916016 C53.19932527 315.55039698 48.41689097 318.37368457 43.625 321.1875 C41.51054501 322.42469853 39.3959601 323.66167506 37.28125 324.8984375 C36.24226562 325.50655273 35.20328125 326.11466797 34.1328125 326.74121094 C23.83251986 332.76420673 13.50796925 338.74550156 3.125 344.625 C2.45984375 345.00374268 1.7946875 345.38248535 1.109375 345.77270508 C-4.57194075 348.97366699 -9.33409079 350.68603766 -15.875 349.5 C-27.21453192 344.94382444 -37.74182556 338.23703617 -48.24560547 332.04785156 C-52.96804132 329.26788468 -57.70383673 326.5107896 -62.4375 323.75 C-63.44103516 323.16395996 -64.44457031 322.57791992 -65.47851562 321.97412109 C-72.93004311 317.62504014 -80.39884392 313.30658264 -87.875 309 C-101.31691881 301.25592734 -114.71665952 293.44065766 -128.10791016 285.609375 C-130.28835612 284.33434375 -132.46901811 283.05968186 -134.64990234 281.78540039 C-136.69109373 280.59273576 -138.73181836 279.39927178 -140.77197266 278.20483398 C-146.4339922 274.89700191 -152.12693474 271.65606179 -157.875 268.5 C-157.875 267.84 -157.875 267.18 -157.875 266.5 C-158.865 266.17 -159.855 265.84 -160.875 265.5 C-169.41202399 254.11730135 -167.15192725 236.83885583 -167.0625 223.375 C-167.05420515 221.18392046 -167.04623871 218.99283965 -167.03857422 216.80175781 C-167.00876294 210.05363466 -166.9543425 203.30584412 -166.89334869 196.55793762 C-166.87435582 194.42775022 -166.85636911 192.29755603 -166.83856201 190.1673584 C-166.76130955 181.03404949 -166.6673474 171.90106804 -166.55459595 162.76812744 C-166.51752344 159.76371948 -166.48419058 156.75930605 -166.45394897 153.75482178 C-166.41741746 150.18711827 -166.3709751 146.6196717 -166.31712532 143.05218887 C-166.28985327 141.10338182 -166.27179552 139.15445263 -166.25401306 137.20553589 C-166.15285824 131.20371731 -165.73937292 126.18915945 -163.875 120.5 C-163.66277176 118.38243022 -163.52443692 116.25613694 -163.4609375 114.12890625 C-163.42226562 112.97841797 -163.38359375 111.82792969 -163.34375 110.64257812 C-163.3128125 109.46115234 -163.281875 108.27972656 -163.25 107.0625 C-163.21132812 105.85400391 -163.17265625 104.64550781 -163.1328125 103.40039062 C-163.03900542 100.43374183 -162.95330754 97.46709164 -162.875 94.5 C-162.545 94.5 -162.215 94.5 -161.875 94.5 C-161.87537703 95.32753029 -161.87575405 96.15506058 -161.8761425 97.00766754 C-161.88326379 117.15591289 -161.85732483 137.30388007 -161.7947216 157.452034 C-161.76524168 167.19561861 -161.74689585 176.9389853 -161.75488281 186.68261719 C-161.76181699 195.17653598 -161.7477366 203.67011742 -161.70856392 212.1639533 C-161.68855745 216.66027568 -161.67897807 221.1560685 -161.69457626 225.65242004 C-161.70893757 229.88802831 -161.69511797 234.12262626 -161.66004753 238.35810471 C-161.65210458 239.90923133 -161.65429743 241.46044961 -161.66760826 243.01153946 C-161.78358144 253.90008853 -161.78358144 253.90008853 -156.43600941 263.09741211 C-154.13383096 265.16595032 -151.83400969 266.74141502 -149.11328125 268.21875 C-147.45619141 269.13914062 -147.45619141 269.13914062 -145.765625 270.078125 C-145.18361328 270.39072266 -144.60160156 270.70332031 -144.00195312 271.02539062 C-141.49290535 272.37309228 -139.00609774 273.75980895 -136.51693726 275.14379883 C-135.22218232 275.86310939 -133.92629277 276.58038126 -132.62930298 277.2956543 C-126.12486938 280.88810379 -119.74942844 284.6815518 -113.375 288.5 C-103.61438265 294.31959705 -93.79098256 300.01418621 -83.91461182 305.63375854 C-75.83327528 310.23201082 -67.7755238 314.86737248 -59.75 319.5625 C-51.67010987 324.2873949 -43.58414797 329.00132412 -35.48101807 333.68624878 C-33.79506662 334.66143267 -32.11016502 335.63843089 -30.42529297 336.61547852 C-29.39549316 337.21030029 -28.36569336 337.80512207 -27.3046875 338.41796875 C-26.39960449 338.94156982 -25.49452148 339.4651709 -24.56201172 340.00463867 C-18.37199476 343.44947366 -13.99920312 345.77177268 -6.875 344.5 C-3.16202346 343.05558273 0.19505807 341.14085908 3.625 339.125 C4.59131348 338.5769873 5.55762695 338.02897461 6.55322266 337.46435547 C9.42270465 335.82973236 12.27556211 334.16926408 15.125 332.5 C16.58064801 331.65611 18.03636935 330.81234645 19.4921875 329.96875 C22.20094504 328.38989579 24.8999921 326.795707 27.59375 325.19140625 C33.04226742 321.94712884 38.52142924 318.75567985 44 315.5625 C45.0297998 314.96195801 46.05959961 314.36141602 47.12060547 313.74267578 C54.04503198 309.70661805 60.97820231 305.68592726 67.91723633 301.67504883 C75.19013048 297.4686795 82.44443059 293.23065896 89.69750977 288.99023438 C95.15898289 285.80092577 100.63029497 282.62974609 106.1171875 279.484375 C106.69897263 279.15044739 107.28075775 278.81651978 107.88017273 278.47247314 C110.68763442 276.86107721 113.49663263 275.25252122 116.30883789 273.64941406 C119.26162034 271.955718 122.1958236 270.2341301 125.125 268.5 C125.98625488 268.00886719 126.84750977 267.51773437 127.73486328 267.01171875 C128.52489746 266.53347656 129.31493164 266.05523437 130.12890625 265.5625 C130.80896729 265.16160156 131.48902832 264.76070313 132.18969727 264.34765625 C137.33644659 259.43399422 138.38766026 254.27410139 138.63293457 247.3969574 C138.67132369 244.51077816 138.65907173 241.62630113 138.64257812 238.73999023 C138.64800447 237.14427046 138.65513 235.54855569 138.66381836 233.95285034 C138.68199237 229.63675011 138.67500923 225.32103401 138.66230202 221.0049274 C138.6521453 216.47984231 138.66157494 211.95478919 138.66784668 207.42970276 C138.67511458 199.83303954 138.66555716 192.23653212 138.64648438 184.63989258 C138.62470941 175.86583495 138.63177492 167.09214905 138.65379 158.31810039 C138.67195912 150.77391079 138.67449517 143.22983289 138.66403532 135.68562847 C138.6578097 131.18453159 138.65693921 126.68360929 138.67018127 122.18252373 C138.68176152 117.95111998 138.67367468 113.72019428 138.65060425 109.48884201 C138.64532906 107.93889089 138.64681056 106.38889933 138.65565491 104.83896446 C138.87416286 93.96719108 138.87416286 93.96719108 134.125 84.5 C132.26993329 82.71033129 132.26993329 82.71033129 130.140625 81.5078125 C129.35107422 81.02086914 128.56152344 80.53392578 127.74804688 80.03222656 C126.88244141 79.5265918 126.01683594 79.02095703 125.125 78.5 C124.19236328 77.94538086 123.25972656 77.39076172 122.29882812 76.81933594 C119.17081251 74.98058375 116.02579639 73.1744168 112.875 71.375 C111.73619385 70.72120361 110.5973877 70.06740723 109.42407227 69.39379883 C101.44438805 64.813407 93.44980862 60.25896753 85.45678711 55.7019043 C79.57955858 52.34598706 73.73779441 48.93441949 67.91210938 45.48999023 C60.37923163 41.04374231 52.79512391 36.68685304 45.21459961 32.32250977 C37.62665704 27.95109336 30.05854055 23.54702385 22.5 19.125 C15.62543963 15.10810662 8.74324853 11.10683588 1.8125 7.1875 C1.16651855 6.82027832 0.52053711 6.45305664 -0.14501953 6.07470703 C-5.30398587 3.1762365 -8.91304631 2.01919728 -14.875 2.5 C-22.3035229 5.06681577 -29.0672959 9.35762227 -35.8125 13.3125 C-37.54009077 14.31757435 -39.2676859 15.32264129 -40.99554443 16.32725525 C-42.77856662 17.36463185 -44.56047212 18.40390757 -46.34228516 19.44335938 C-50.80683478 22.04544728 -55.28573128 24.62251276 -59.7644043 27.20019531 C-72.17274883 34.34203883 -84.54641412 41.54239417 -96.90722656 48.76611328 C-100.89508644 51.0959735 -104.88456616 53.42305088 -108.87426758 55.74975586 C-110.86394764 56.91028115 -112.85337114 58.0712464 -114.8425293 59.23266602 C-120.02413069 62.25757099 -125.2099408 65.27491891 -130.40234375 68.28125 C-132.01206055 69.21517578 -132.01206055 69.21517578 -133.65429688 70.16796875 C-135.69199557 71.35001042 -137.73096724 72.52986163 -139.77148438 73.70703125 C-151.90120002 80.38914314 -151.90120002 80.38914314 -160.875 90.5 C-161.865 90.5 -162.855 90.5 -163.875 90.5 C-164.205 91.49 -164.535 92.48 -164.875 93.5 C-165.875 91.5 -165.875 91.5 -164.875 87.75 C-160.57300953 77.16634203 -147.27826759 71.87251575 -137.75390625 66.7109375 C-131.45730064 63.29513885 -125.25913523 59.71817194 -119.0625 56.125 C-116.74641561 54.7845992 -114.42982153 53.44508173 -112.11328125 52.10546875 C-111.02225098 51.47431152 -109.9312207 50.8431543 -108.80712891 50.19287109 C-105.46192358 48.26150942 -102.10809061 46.34635299 -98.75 44.4375 C-84.69530284 36.42098975 -70.76002725 28.19496703 -56.80444336 20.00756836 C-50.82955633 16.50232336 -44.85270266 13.0004408 -38.875 9.5 C-37.85712402 8.90364746 -36.83924805 8.30729492 -35.79052734 7.69287109 C-33.1121969 6.12538993 -30.43161962 4.56184553 -27.75 3 C-26.98067139 2.54923096 -26.21134277 2.09846191 -25.41870117 1.6340332 C-16.81244911 -3.36433169 -9.15957436 -4.48855636 0 0 Z " fill="#A42425" transform="translate(172.875,5.5)"/>
<path d="M0 0 C15.51 0 31.02 0 47 0 C47.0825 5.40375 47.165 10.8075 47.25 16.375 C47.28641602 18.05899902 47.32283203 19.74299805 47.36035156 21.47802734 C47.51202141 33.49054144 45.45960057 42.94148966 37 52 C33.10446432 55.66805914 29.48096668 58.4543807 24.4375 60.3125 C16.75635999 59.61421454 11.54549821 52.87634565 6.76171875 47.3125 C1.75926217 40.74608249 -0.15579883 34.43833416 -0.09765625 26.26953125 C-0.09664917 25.60417358 -0.09564209 24.93881592 -0.09460449 24.2532959 C-0.08938106 21.77301301 -0.07541978 19.29275474 -0.0625 16.8125 C-0.041875 11.264375 -0.02125 5.71625 0 0 Z " fill="#78362E" transform="translate(180,104)"/>
<path d="M0 0 C3.55272028 2.43006067 5.85839543 4.77368572 7.6875 8.75 C8.05456988 14.99018794 4.74289274 19.00568341 1.3984375 23.9609375 C-0.57661101 27.18053713 -1.67296376 30.23637345 -2.609375 33.875 C-3.43734889 36.08293037 -4.55740564 37.2070599 -6.3125 38.75 C-7.075625 38.255 -7.83875 37.76 -8.625 37.25 C-15.77742531 34.34053886 -23.15467382 35.20499514 -30.3125 37.75 C-30.7146875 36.7290625 -30.7146875 36.7290625 -31.125 35.6875 C-31.9400782 33.67125393 -32.79673733 31.67147141 -33.6875 29.6875 C-41.0294922 12.4055799 -41.0294922 12.4055799 -39.3125 4.75 C-31.75621717 -7.39402598 -11.00979701 -6.34082754 0 0 Z " fill="#E8E1D2" transform="translate(141.3125,105.25)"/>
<path d="M0 0 C0.33 0 0.66 0 1 0 C0.99962297 0.82753029 0.99924595 1.65506058 0.9988575 2.50766754 C0.99173621 22.65591289 1.01767517 42.80388007 1.0802784 62.952034 C1.10975832 72.69561861 1.12810415 82.4389853 1.12011719 92.18261719 C1.11318301 100.67653598 1.1272634 109.17011742 1.16643608 117.6639533 C1.18644255 122.16027568 1.19602193 126.6560685 1.18042374 131.15242004 C1.16606243 135.38802831 1.17988203 139.62262626 1.21495247 143.85810471 C1.22289542 145.40923133 1.22070257 146.96044961 1.20739174 148.51153946 C1.09141856 159.40008853 1.09141856 159.40008853 6.43899059 168.59741211 C8.74116904 170.66595032 11.04099031 172.24141502 13.76171875 173.71875 C15.41880859 174.63914062 15.41880859 174.63914062 17.109375 175.578125 C17.98239258 176.04702148 17.98239258 176.04702148 18.87304688 176.52539062 C21.38209465 177.87309228 23.86890226 179.25980895 26.35806274 180.64379883 C27.65281768 181.36310939 28.94870723 182.08038126 30.24569702 182.7956543 C36.75012569 186.38810107 43.12565577 190.18141809 49.5 194 C59.44984405 199.93482803 69.4696753 205.72975523 79.54064941 211.45556641 C88.43705335 216.51455981 97.27170732 221.65614734 106 227 C105.67 228.32 105.34 229.64 105 231 C95.2591306 226.39204382 86.01172129 221.04590945 76.72460938 215.59765625 C72.84345884 213.32182748 68.95630401 211.05633219 65.06958008 208.79003906 C63.01963091 207.59460223 60.96998991 206.39863678 58.9206543 205.20214844 C51.87475309 201.08888996 44.81702628 196.99659064 37.75244141 192.91552734 C32.4439982 189.84546057 27.15584073 186.74226806 21.875 183.625 C16.29471348 180.33110755 10.68937763 177.10329689 5 174 C5 173.34 5 172.68 5 172 C4.01 171.67 3.02 171.34 2 171 C-6.53702399 159.61730135 -4.27692725 142.33885583 -4.1875 128.875 C-4.17920515 126.68392046 -4.17123871 124.49283965 -4.16357422 122.30175781 C-4.13376294 115.55363466 -4.0793425 108.80584412 -4.01834869 102.05793762 C-3.99935582 99.92775022 -3.98136911 97.79755603 -3.96356201 95.6673584 C-3.88630955 86.53404949 -3.7923474 77.40106804 -3.67959595 68.26812744 C-3.64252344 65.26371948 -3.60919058 62.25930605 -3.57894897 59.25482178 C-3.54241746 55.68711827 -3.4959751 52.1196717 -3.44212532 48.55218887 C-3.41485327 46.60338182 -3.39679552 44.65445263 -3.37901306 42.70553589 C-3.27785824 36.70371731 -2.86437292 31.68915945 -1 26 C-0.78777176 23.88243022 -0.64943692 21.75613694 -0.5859375 19.62890625 C-0.54726562 18.47841797 -0.50859375 17.32792969 -0.46875 16.14257812 C-0.4378125 14.96115234 -0.406875 13.77972656 -0.375 12.5625 C-0.33632812 11.35400391 -0.29765625 10.14550781 -0.2578125 8.90039062 C-0.16400542 5.93374183 -0.07830754 2.96709164 0 0 Z " fill="#A81F20" transform="translate(10,100)"/>
<path d="M0 0 C0.66 0.99 1.32 1.98 2 3 C4.56282742 3.72965366 4.56282742 3.72965366 7 4 C7.33 3.01 7.66 2.02 8 1 C8.99 1.33 9.98 1.66 11 2 C10.01 2.99 9.02 3.98 8 5 C10.64 5.33 13.28 5.66 16 6 C15.67 6.66 15.34 7.32 15 8 C14.34 8 13.68 8 13 8 C13.71563266 10.0162233 13.71563266 10.0162233 15 12 C17.05000871 12.80528889 17.05000871 12.80528889 19 13 C19 14.98 19 16.96 19 19 C18.01 19 17.02 19 16 19 C17 16 17 16 18 14 C17.01 14 16.02 14 15 14 C15 15.98 15 17.96 15 20 C15.99 20.33 16.98 20.66 18 21 C17.67 21.66 17.34 22.32 17 23 C15.68 23 14.36 23 13 23 C13 24.32 13 25.64 13 27 C12.67 27.99 12.34 28.98 12 30 C11.34 29.01 10.68 28.02 10 27 C8.68 27 7.36 27 6 27 C6 28.65 6 30.3 6 32 C4.02 32 2.04 32 0 32 C0 31.01 0 30.02 0 29 C3 30 3 30 4 31 C4 30.01 4 29.02 4 28 C1.52733235 28.34444881 1.52733235 28.34444881 -1 29 C-1.33 29.66 -1.66 30.32 -2 31 C-3.32 30.67 -4.64 30.34 -6 30 C-5.01 29.01 -4.02 28.02 -3 27 C-3.78375 26.855625 -4.5675 26.71125 -5.375 26.5625 C-8 26 -8 26 -10 25 C-9.01 24.67 -8.02 24.34 -7 24 C-7.63979849 21.96758273 -7.63979849 21.96758273 -9 20 C-11.55519921 19.18828772 -11.55519921 19.18828772 -14 19 C-14 17.02 -14 15.04 -14 13 C-12.68 13 -11.36 13 -10 13 C-9.67 14.32 -9.34 15.64 -9 17 C-9 15.35 -9 13.7 -9 12 C-9.99 11.67 -10.98 11.34 -12 11 C-11.67 10.01 -11.34 9.02 -11 8 C-11 8.66 -11 9.32 -11 10 C-9.68 10 -8.36 10 -7 10 C-7 7.36 -7 4.72 -7 2 C-5 3 -5 3 -4 5 C-2.68 4.67 -1.36 4.34 0 4 C0 2.68 0 1.36 0 0 Z " fill="#EEB135" transform="translate(201,124)"/>
<path d="M0 0 C15.51 0 31.02 0 47 0 C47.0825 5.40375 47.165 10.8075 47.25 16.375 C47.28641602 18.05899902 47.32283203 19.74299805 47.36035156 21.47802734 C47.51202141 33.49054144 45.45960057 42.94148966 37 52 C33.10446432 55.66805914 29.48096668 58.4543807 24.4375 60.3125 C16.69122107 59.60829282 11.50494513 52.79441418 6.703125 47.1796875 C4.66842292 44.57564218 3.11414184 42.11959716 2 39 C2.33 38.01 2.66 37.02 3 36 C3.38671875 36.78246094 3.7734375 37.56492188 4.171875 38.37109375 C4.69265625 39.38300781 5.2134375 40.39492187 5.75 41.4375 C6.26046875 42.44683594 6.7709375 43.45617187 7.296875 44.49609375 C8.75022736 47.14407316 8.75022736 47.14407316 11.203125 47.84765625 C11.79609375 47.89792969 12.3890625 47.94820312 13 48 C13 48.66 13 49.32 13 50 C14.98 50.33 16.96 50.66 19 51 C19.33 50.01 19.66 49.02 20 48 C21.65 48 23.3 48 25 48 C25 48.99 25 49.98 25 51 C22 50 22 50 21 49 C21 49.99 21 50.98 21 52 C22.98 52 24.96 52 27 52 C27 50.35 27 48.7 27 47 C28.98 46.505 28.98 46.505 31 46 C31.66 46.99 32.32 47.98 33 49 C33.33 48.01 33.66 47.02 34 46 C35.98 46 37.96 46 40 46 C40.268125 45.175 40.53625 44.35 40.8125 43.5 C42 40 42 40 43.5625 36.5625 C45.69989926 30.40575785 45.69989926 30.40575785 46 17 C31.48 17 16.96 17 2 17 C2 22.94 2 28.88 2 35 C1.34 34.67 0.68 34.34 0 34 C0 22.78 0 11.56 0 0 Z M2 2 C2 6.62 2 11.24 2 16 C16.19 16 30.38 16 45 16 C45 11.38 45 6.76 45 2 C30.81 2 16.62 2 2 2 Z " fill="#6D382C" transform="translate(180,104)"/>
<path d="M0 0 C5.87499314 0.69117566 9.612367 3.398885 13.4375 7.8125 C15.4986441 12.01723397 15.3976322 13.51286503 14 18 C12.32746263 20.80458556 10.53763451 23.50444356 8.7109375 26.2109375 C6.73588899 29.43053713 5.63953624 32.48637345 4.703125 36.125 C4 38 4 38 1 41 C-3.455 39.02 -3.455 39.02 -8 37 C-8 35.02 -8 33.04 -8 31 C-6.35 30.67 -4.7 30.34 -3 30 C-3.04640625 29.319375 -3.0928125 28.63875 -3.140625 27.9375 C-3.4145455 20.58077787 -2.33297937 14.2784024 -0.33496094 7.2578125 C0.91739924 3.58146705 0.91739924 3.58146705 0 0 Z " fill="#D6CCBA" transform="translate(134,103)"/>
<path d="M0 0 C13.125 -0.53571429 13.125 -0.53571429 16.6875 1.8125 C19.66490778 4.62896682 20.92285733 6.18228765 21.3125 10.3125 C20.96694704 14.39002497 20.30181601 16.62400319 18 20 C12.58610002 24.16453845 6.51410482 23.21713683 0 23 C0 15.41 0 7.82 0 0 Z " fill="#414144" transform="translate(125,184)"/>
<path d="M0 0 C3.60229744 2.14604954 5.43861353 4.1528 7 8 C7.34050529 12.88057582 6.66327491 16.18366164 3.5625 20 C-0.49214857 23.16460376 -2.83078706 23.43076775 -8 23 C-11.70390021 20.97333762 -13.65363011 19.51955484 -16 16 C-16.68343706 12.22311096 -16.85107095 8.52813111 -14.94921875 5.11328125 C-10.54253914 -0.25532843 -6.64649228 -0.83943588 0 0 Z " fill="#3E3C41" transform="translate(117,184)"/>
<path d="M0 0 C1.4092039 2.81840779 0.98077366 5.10499662 0.875 8.25 C0.79594187 15.88701511 2.11400406 22.61318258 4 30 C3.01 30 2.02 30 1 30 C0.67 30.66 0.34 31.32 0 32 C-1.64295195 33.36244796 -3.30824337 34.69864875 -5 36 C-9.18665091 33.20889939 -9.67276908 30.0864149 -11.1875 25.4375 C-11.59645508 24.27637695 -11.59645508 24.27637695 -12.01367188 23.09179688 C-13.77989253 17.77542844 -14.83995963 12.60922194 -14 7 C-11.31927909 2.93568121 -8.7791274 1.74487792 -4.1875 0.6875 C-2.79482492 0.43986283 -1.39968739 0.20431167 0 0 Z " fill="#FBFAEE" transform="translate(116,103)"/>
<path d="M0 0 C0.33 0 0.66 0 1 0 C1.04673386 15.16853458 1.08199564 30.33706583 1.10362434 45.50565624 C1.11393414 52.54879857 1.12798878 59.59189616 1.15087891 66.63500977 C1.17295247 73.43011716 1.18456419 80.225178 1.18975449 87.02031898 C1.19345404 89.61469569 1.2006782 92.20906981 1.21146011 94.80342674 C1.2259466 98.43305366 1.22797911 102.06248756 1.22705078 105.69213867 C1.23424133 106.7681987 1.24143188 107.84425873 1.24884033 108.95292664 C1.246091 109.94425598 1.24334167 110.93558533 1.24050903 111.95695496 C1.24235262 112.81514422 1.24419621 113.67333349 1.24609566 114.5575285 C0.96733061 117.32424002 0.13821869 119.47525732 -1 122 C-1.33 122 -1.66 122 -2 122 C-2.87852268 94.7219705 -3.09556382 67.48181389 -2.71766281 40.1949501 C-2.6875323 37.93991756 -2.66108433 35.6848677 -2.63552856 33.42977905 C-2.59400926 29.84343924 -2.54190731 26.25740248 -2.4814415 22.67133331 C-2.45011146 20.70827879 -2.42721771 18.7450953 -2.40457153 16.78192139 C-2.2891734 10.83717831 -2.05778818 5.60373816 0 0 Z " fill="#9D0305" transform="translate(9,126)"/>
<path d="M0 0 C1.98 0 3.96 0 6 0 C6 2.64 6 5.28 6 8 C8.64 8 11.28 8 14 8 C14 5.36 14 2.72 14 0 C16.31 0 18.62 0 21 0 C21.02887814 3.47914941 21.04675687 6.95826831 21.0625 10.4375 C21.07087891 11.43072266 21.07925781 12.42394531 21.08789062 13.44726562 C21.09272461 14.86362305 21.09272461 14.86362305 21.09765625 16.30859375 C21.10551147 17.62041626 21.10551147 17.62041626 21.11352539 18.95874023 C21 21 21 21 20 22 C18.00041636 22.04080783 15.99954746 22.04254356 14 22 C14 19.03 14 16.06 14 13 C11.36 13 8.72 13 6 13 C6 15.97 6 18.94 6 22 C4.02 22 2.04 22 0 22 C0.08378906 21.36191406 0.16757813 20.72382813 0.25390625 20.06640625 C0.40666016 18.82697266 0.40666016 18.82697266 0.5625 17.5625 C0.66691406 16.73878906 0.77132812 15.91507813 0.87890625 15.06640625 C0.91886719 14.38449219 0.95882812 13.70257813 1 13 C0.67 12.67 0.34 12.34 0 12 C-0.07244053 9.98035801 -0.08377188 7.95832876 -0.0625 5.9375 C-0.05347656 4.83277344 -0.04445312 3.72804687 -0.03515625 2.58984375 C-0.02355469 1.73519531 -0.01195312 0.88054687 0 0 Z " fill="#434346" transform="translate(186,185)"/>
<path d="M0 0 C4.95 0 9.9 0 15 0 C15 1.65 15 3.3 15 5 C12.03 5 9.06 5 6 5 C6 5.99 6 6.98 6 8 C8.97 8 11.94 8 15 8 C15 9.65 15 11.3 15 13 C12.03 13 9.06 13 6 13 C6 14.32 6 15.64 6 17 C9.3 17 12.6 17 16 17 C15.67 18.65 15.34 20.3 15 22 C10.05 22 5.1 22 0 22 C0 14.74 0 7.48 0 0 Z " fill="#39393C" transform="translate(148,184)"/>
<path d="M0 0 C4.95 0 9.9 0 15 0 C15 1.32 15 2.64 15 4 C12.36 4 9.72 4 7 4 C7 5.32 7 6.64 7 8 C9.64 8 12.28 8 15 8 C15 9.65 15 11.3 15 13 C12.03 13 9.06 13 6 13 C6.33 13.66 6.66 14.32 7 15 C9.12576782 15.46651207 9.12576782 15.46651207 11.5625 15.625 C12.38878906 15.69976562 13.21507812 15.77453125 14.06640625 15.8515625 C14.70449219 15.90054688 15.34257812 15.94953125 16 16 C15.67 17.65 15.34 19.3 15 21 C10.05 21 5.1 21 0 21 C0 14.07 0 7.14 0 0 Z " fill="#414043" transform="translate(208,186)"/>
<path d="M0 0 C3.51449145 0.01678897 4.38059167 0.07296179 7.25 2.3125 C7.724375 2.9725 8.19875 3.6325 8.6875 4.3125 C8.0275 5.6325 7.3675 6.9525 6.6875 8.3125 C6.04941406 8.22871094 5.41132812 8.14492187 4.75390625 8.05859375 C3.92761719 7.95675781 3.10132812 7.85492188 2.25 7.75 C1.42628906 7.64558594 0.60257813 7.54117188 -0.24609375 7.43359375 C-0.92800781 7.39363281 -1.60992187 7.35367188 -2.3125 7.3125 C-3.64898017 8.42351184 -3.64898017 8.42351184 -3.4375 11.25 C-3.52575664 14.22795728 -3.52575664 14.22795728 -2.3125 16.3125 C1.03002724 16.38677838 3.4910914 16.37796953 6.6875 15.3125 C7.3475 16.9625 8.0075 18.6125 8.6875 20.3125 C4.58543387 23.29582082 1.72964275 24.09490146 -3.3125 23.3125 C-6.40381537 21.83011485 -8.43678334 20.19483293 -10.3125 17.3125 C-11.19268264 13.47781893 -11.17113474 10.1500716 -10.3125 6.3125 C-7.875 3.1875 -7.875 3.1875 -5.3125 1.3125 C-3.74308802 -0.25691198 -2.17115006 0.0675153 0 0 Z " fill="#3E3C41" transform="translate(92.3125,183.6875)"/>
<path d="M0 0 C0 1.65 0 3.3 0 5 C-1.134375 5.309375 -2.26875 5.61875 -3.4375 5.9375 C-6.78775099 6.62924531 -6.78775099 6.62924531 -8 8 C-8.41018434 12.6848478 -8.41018434 12.6848478 -6.875 17 C-3.98192987 18.54297074 -2.06359725 17.91256088 1 17 C1.66 16.01 2.32 15.02 3 14 C4.32 14.66 5.64 15.32 7 16 C6.6821697 18.9664161 5.9895397 20.01076795 3.875 22.1875 C0.36993035 24.39721782 -1.85403009 25 -6 25 C-9.69227406 23.22486824 -11.57062766 21.6297461 -13.875 18.25 C-15.23153265 14.33112789 -15.89478387 11.0916026 -15 7 C-11.0270715 0.18716334 -7.26002637 -0.1170972 0 0 Z " fill="#3F3D42" transform="translate(180,183)"/>
<path d="M0 0 C0 4.62 0 9.24 0 14 C-8.75 14.125 -8.75 14.125 -11 13 C-13.3329866 12.95977609 -15.66706666 12.95679753 -18 13 C-18 9.04 -18 5.08 -18 1 C-12.01056311 -0.33098597 -6.10314542 -0.06781273 0 0 Z " fill="#7D3930" transform="translate(225,106)"/>
<path d="M0 0 C5.28 0 10.56 0 16 0 C16 1.65 16 3.3 16 5 C13.03 5 10.06 5 7 5 C7 5.99 7 6.98 7 8 C9.64 8 12.28 8 15 8 C15 9.98 15 11.96 15 14 C12.36 14 9.72 14 7 14 C7 16.64 7 19.28 7 22 C5.02 22 3.04 22 1 22 C0.67 14.74 0.34 7.48 0 0 Z " fill="#434246" transform="translate(225,185)"/>
<path d="M0 0 C9 0 9 0 11.5625 1.5 C12.036875 1.995 12.51125 2.49 13 3 C12.814375 3.969375 12.62875 4.93875 12.4375 5.9375 C12.293125 6.948125 12.14875 7.95875 12 9 C12.33 9.33 12.66 9.66 13 10 C13.25 12.9375 13.25 12.9375 13 16 C8.61501596 18.92332269 5.2225328 18.1356502 0 18 C0 12.06 0 6.12 0 0 Z " fill="#613236" transform="translate(89,222)"/>
<path d="M0 0 C15.18 0 30.36 0 46 0 C46 5.61 46 11.22 46 17 C31.48 17 16.96 17 2 17 C2 22.94 2 28.88 2 35 C1.34 34.67 0.68 34.34 0 34 C0 22.78 0 11.56 0 0 Z M2 2 C2 6.62 2 11.24 2 16 C16.19 16 30.38 16 45 16 C45 11.38 45 6.76 45 2 C30.81 2 16.62 2 2 2 Z " fill="#47252D" transform="translate(180,104)"/>
<path d="M0 0 C0.66 0.99 1.32 1.98 2 3 C4.56282742 3.72965366 4.56282742 3.72965366 7 4 C7.33 3.01 7.66 2.02 8 1 C8.99 1.33 9.98 1.66 11 2 C10.01 2.99 9.02 3.98 8 5 C10.64 5.33 13.28 5.66 16 6 C15.67 6.66 15.34 7.32 15 8 C14.34 8 13.68 8 13 8 C13.350625 8.680625 13.70125 9.36125 14.0625 10.0625 C15.22620603 13.7087789 14.72845102 16.28489978 14 20 C13.34 19.67 12.68 19.34 12 19 C12 17.68 12 16.36 12 15 C9.525 14.505 9.525 14.505 7 14 C7.33 13.01 7.66 12.02 8 11 C7.01 11.33 6.02 11.66 5 12 C4.01 11.67 3.02 11.34 2 11 C1.34 11.66 0.68 12.32 0 13 C-0.66 12.67 -1.32 12.34 -2 12 C-4.35981813 12.93578995 -6.69631264 13.93347808 -9 15 C-9 14.01 -9 13.02 -9 12 C-9.99 11.67 -10.98 11.34 -12 11 C-11.67 10.01 -11.34 9.02 -11 8 C-11 8.66 -11 9.32 -11 10 C-9.68 10 -8.36 10 -7 10 C-7 7.36 -7 4.72 -7 2 C-5 3 -5 3 -4 5 C-2.68 4.67 -1.36 4.34 0 4 C0 2.68 0 1.36 0 0 Z " fill="#F1B632" transform="translate(201,124)"/>
<path d="M0 0 C-0.09418815 4.14466145 -0.20041899 8.2887947 -0.31738281 12.43286133 C-0.35545293 13.84000398 -0.39034245 15.24723669 -0.421875 16.65454102 C-0.4680078 18.68798823 -0.52591568 20.72082707 -0.5859375 22.75390625 C-0.6173584 23.97408447 -0.6487793 25.1942627 -0.68115234 26.45141602 C-1 30 -1 30 -2 33.29345703 C-2.99483995 36.98087405 -3.27500196 40.04600339 -3.31884766 43.85327148 C-3.32889328 44.49802933 -3.3389389 45.14278717 -3.34928894 45.80708313 C-3.37987148 47.91174528 -3.39708546 50.01628177 -3.4140625 52.12109375 C-3.43279431 53.59083621 -3.4523692 55.06056815 -3.4727478 56.5302887 C-3.52386263 60.3787106 -3.56359812 64.22716728 -3.60089111 68.07574463 C-3.64106101 72.01086893 -3.6920938 75.94585111 -3.7421875 79.88085938 C-3.83870193 87.58714173 -3.92318413 95.29349343 -4 103 C-4.33 103 -4.66 103 -5 103 C-5.06945809 90.16112074 -5.12279004 77.32228605 -5.15543652 64.48325729 C-5.17110383 58.52181113 -5.19236176 52.56049336 -5.22631836 46.59912109 C-5.25887349 40.84791041 -5.27684499 35.09682335 -5.28463173 29.34552765 C-5.29018213 27.14943749 -5.30102048 24.95335423 -5.31719017 22.75731659 C-5.33891304 19.68539212 -5.34196904 16.6139809 -5.34057617 13.54199219 C-5.351362 12.63065018 -5.36214783 11.71930817 -5.3732605 10.78034973 C-5.34305008 4.63789688 -5.34305008 4.63789688 -3.60371399 1.40362549 C-2 0 -2 0 0 0 Z " fill="#CA7B7C" transform="translate(11,96)"/>
<path d="M0 0 C0.99 0 1.98 0 3 0 C3 0.66 3 1.32 3 2 C3.99 1.34 4.98 0.68 6 0 C9.32240324 0.3241369 10.60776303 0.60776303 13 3 C13.46376812 10.30434783 13.46376812 10.30434783 11 14 C7.875 14.1875 7.875 14.1875 5 14 C4.67 15.98 4.34 17.96 4 20 C2.68 20 1.36 20 0 20 C0 13.4 0 6.8 0 0 Z " fill="#6B3D42" transform="translate(231,226)"/>
<path d="M0 0 C0.99 0 1.98 0 3 0 C2.67 2.31 2.34 4.62 2 7 C1.34 7 0.68 7 0 7 C0 57.82 0 108.64 0 161 C-0.33 161 -0.66 161 -1 161 C-1.02332712 140.15586397 -1.04097826 119.31173008 -1.05181217 98.46758366 C-1.05697553 88.78998949 -1.06401897 79.11240342 -1.07543945 69.43481445 C-1.08538509 61.00299669 -1.09185314 52.57118479 -1.09408849 44.13936132 C-1.09539581 39.67192608 -1.09848295 35.2045076 -1.10573006 30.73707771 C-1.11248838 26.5371584 -1.11461735 22.33726287 -1.11310768 18.13733864 C-1.11338409 16.59131491 -1.11539033 15.04529044 -1.11920547 13.49927139 C-1.1241398 11.39764224 -1.12299928 9.29610428 -1.12025452 7.19447327 C-1.12117631 6.01550004 -1.1220981 4.83652681 -1.12304783 3.62182713 C-1 1 -1 1 0 0 Z " fill="#A61819" transform="translate(313,97)"/>
<path d="M0 0 C1.65 0 3.3 0 5 0 C5.84124316 2.24732102 6.67314832 4.49738785 7.5 6.75 C7.73847656 7.38421875 7.97695312 8.0184375 8.22265625 8.671875 C9.44801758 12.03286607 10 14.36871587 10 18 C8.68 18 7.36 18 6 18 C6 16.68 6 15.36 6 14 C3.69 14.33 1.38 14.66 -1 15 C-1.33 15.99 -1.66 16.98 -2 18 C-3.32 18 -4.64 18 -6 18 C-4.83805848 11.53287812 -2.8751252 5.90377651 0 0 Z " fill="#633439" transform="translate(76,222)"/>
<path d="M0 0 C1.32 0 2.64 0 4 0 C4.33 1.65 4.66 3.3 5 5 C5.78375 4.95875 6.5675 4.9175 7.375 4.875 C10 5 10 5 12 7 C12.1953125 9.8203125 12.1953125 9.8203125 12.125 13.125 C12.10695312 14.22070312 12.08890625 15.31640625 12.0703125 16.4453125 C12.03550781 17.70988281 12.03550781 17.70988281 12 19 C10.68 19 9.36 19 8 19 C8 15.37 8 11.74 8 8 C7.01 8.33 6.02 8.66 5 9 C4.67 12.3 4.34 15.6 4 19 C2.68 19 1.36 19 0 19 C0 12.73 0 6.46 0 0 Z " fill="#724B4C" transform="translate(200,221)"/>
<path d="M0 0 C3 1 3 1 4.25 2.625 C5.33257597 6.05315723 5.21065831 8.6738099 4 12 C1.86838238 15.49320112 -0.50323202 18.76006871 -3 22 C-3.66 21.67 -4.32 21.34 -5 21 C-5.66 21.99 -6.32 22.98 -7 24 C-7.98905959 15.49408755 -3.85772424 7.40899376 0 0 Z " fill="#C1B5A1" transform="translate(144,109)"/>
<path d="M0 0 C7.52206798 -0.36993777 7.52206798 -0.36993777 9.625 1.2578125 C11.09405497 3.11917192 12.1482483 4.9322331 13.1875 7.0625 C13.53167969 7.75472656 13.87585938 8.44695312 14.23046875 9.16015625 C15 11 15 11 15 13 C14.01 13 13.02 13 12 13 C12 11.68 12 10.36 12 9 C10.35 9.33 8.7 9.66 7 10 C6.67 10.99 6.34 11.98 6 13 C4.02 13.33 2.04 13.66 0 14 C0 9.38 0 4.76 0 0 Z " fill="#7B3433" transform="translate(182,106)"/>
<path d="M0 0 C0.98025099 7.98204378 1.50311992 15.97591531 2 24 C1.01 22.68 0.02 21.36 -1 20 C-1.33 21.65 -1.66 23.3 -2 25 C-3.91712153 21.61391522 -4.73257783 18.28896405 -5.5625 14.5 C-5.81128906 13.3759375 -6.06007813 12.251875 -6.31640625 11.09375 C-6.54199219 10.0728125 -6.76757812 9.051875 -7 8 C-7.34417969 6.87851563 -7.34417969 6.87851563 -7.6953125 5.734375 C-7.79585938 5.16203125 -7.89640625 4.5896875 -8 4 C-5.32518618 0.43358158 -4.60293628 0 0 0 Z " fill="#DED6C5" transform="translate(111,105)"/>
<path d="M0 0 C3.3 0 6.6 0 10 0 C10 0.99 10 1.98 10 3 C8.02 3 6.04 3 4 3 C4 4.32 4 5.64 4 7 C5.98 7 7.96 7 10 7 C10 8.32 10 9.64 10 11 C8.02 11 6.04 11 4 11 C4 12.32 4 13.64 4 15 C5.98 15 7.96 15 10 15 C10 15.99 10 16.98 10 18 C6.7 18 3.4 18 0 18 C0 12.06 0 6.12 0 0 Z " fill="#66393F" transform="translate(106,222)"/>
<path d="M0 0 C-1.32874026 3.98622077 -2.95705078 4.41564981 -6.57421875 6.46875 C-8.28834961 7.44908203 -8.28834961 7.44908203 -10.03710938 8.44921875 C-11.2538686 9.13287951 -12.47066581 9.81647268 -13.6875 10.5 C-14.88522201 11.18279381 -16.08249319 11.86637909 -17.27929688 12.55078125 C-22.45863588 15.5002035 -27.64930803 18.36944748 -33 21 C-32.25 19.0625 -32.25 19.0625 -31 17 C-28.875 16.25 -28.875 16.25 -27 16 C-26.90005737 15.11115112 -26.90005737 15.11115112 -26.7980957 14.2043457 C-25.67732342 11.1087651 -24.0347629 10.39874357 -21.23046875 8.73046875 C-20.25916016 8.15232422 -19.28785156 7.57417969 -18.28710938 6.97851562 C-17.26423828 6.38748047 -16.24136719 5.79644531 -15.1875 5.1875 C-14.17623047 4.57712891 -13.16496094 3.96675781 -12.12304688 3.33789062 C-10.6602832 2.4803418 -10.6602832 2.4803418 -9.16796875 1.60546875 C-8.27360107 1.08106201 -7.3792334 0.55665527 -6.45776367 0.01635742 C-3.73879736 -1.10801496 -2.69008782 -1.06326808 0 0 Z " fill="#A62223" transform="translate(112,31)"/>
<path d="M0 0 C0.99 0.66 1.98 1.32 3 2 C3.1875 5.125 3.1875 5.125 3 8 C0.36 8 -2.28 8 -5 8 C-4.67 8.66 -4.34 9.32 -4 10 C-1.67843403 10.40729228 0.6568787 10.74438677 3 11 C3 11.99 3 12.98 3 14 C-5.21324503 14.61986755 -5.21324503 14.61986755 -8.0625 12.375 C-9.27652573 9.29946814 -9.47842171 7.28060601 -9 4 C-6.39657511 0.33592052 -4.4590387 -0.68600595 0 0 Z " fill="#5A2628" transform="translate(266,226)"/>
<path d="M0 0 C1 1 1 1 1.09765625 3.72265625 C1.08605469 4.82480469 1.07445312 5.92695313 1.0625 7.0625 C1.05347656 8.16722656 1.04445312 9.27195313 1.03515625 10.41015625 C1.02355469 11.26480469 1.01195312 12.11945313 1 13 C-0.62463842 13.05395478 -2.24978541 13.09277195 -3.875 13.125 C-4.77992188 13.14820313 -5.68484375 13.17140625 -6.6171875 13.1953125 C-9 13 -9 13 -11 11 C-10.44444444 6.44444444 -10.44444444 6.44444444 -9 5 C-6.66702567 4.95907063 -4.33294775 4.95758277 -2 5 C-2.33 4.34 -2.66 3.68 -3 3 C-6.02934491 2.34227572 -6.02934491 2.34227572 -9 2 C-9 1.34 -9 0.68 -9 0 C-5.90842747 -1.54578627 -3.31526981 -0.60277633 0 0 Z " fill="#5F2E33" transform="translate(226,227)"/>
<path d="M0 0 C0.66 0.33 1.32 0.66 2 1 C1.67 1.99 1.34 2.98 1 4 C-1.97 3.505 -1.97 3.505 -5 3 C-5 4.32 -5 5.64 -5 7 C-3.02 7.66 -1.04 8.32 1 9 C1.625 12.375 1.625 12.375 2 16 C0 18 0 18 -2.1640625 18.1953125 C-2.97617188 18.17210937 -3.78828125 18.14890625 -4.625 18.125 C-5.44226563 18.10695312 -6.25953125 18.08890625 -7.1015625 18.0703125 C-7.72804688 18.04710937 -8.35453125 18.02390625 -9 18 C-9 16.68 -9 15.36 -9 14 C-6.69 14.33 -4.38 14.66 -2 15 C-2.33 14.01 -2.66 13.02 -3 12 C-3.825 11.5875 -4.65 11.175 -5.5 10.75 C-8 9 -8 9 -8.8125 5.3125 C-8.874375 4.219375 -8.93625 3.12625 -9 2 C-5.54337669 -0.30441554 -4.05142119 -0.25860135 0 0 Z " fill="#6A3E44" transform="translate(128,222)"/>
<path d="M0 0 C0.66 0.33 1.32 0.66 2 1 C2 1.99 2 2.98 2 4 C0.865625 3.979375 -0.26875 3.95875 -1.4375 3.9375 C-4.81575674 3.58422523 -4.81575674 3.58422523 -6 5 C-6.16053815 6.87321948 -6.16053815 6.87321948 -6.125 9 C-6.12757813 9.721875 -6.13015625 10.44375 -6.1328125 11.1875 C-6.19695276 13.02089415 -6.19695276 13.02089415 -5 14 C-2.66702567 14.04092937 -0.33294775 14.04241723 2 14 C2 15.32 2 16.64 2 18 C0.3973218 18.10824843 -1.20745748 18.18570645 -2.8125 18.25 C-3.70582031 18.29640625 -4.59914062 18.3428125 -5.51953125 18.390625 C-8 18 -8 18 -9.79296875 16.296875 C-11.88763398 12.3109101 -11.77033297 8.37490987 -11 4 C-7.75910204 -0.00346218 -5.02208477 -0.55800942 0 0 Z " fill="#613539" transform="translate(158,222)"/>
<path d="M0 0 C0.33 0 0.66 0 1 0 C1.09982927 4.6589553 1.17191433 9.31727078 1.21972656 13.97705078 C1.23968422 15.55789045 1.2668606 17.13865783 1.30175781 18.71923828 C1.58148899 31.72673814 0.28530266 42.07927927 -9 52 C-13.54025357 56.20605178 -17.5394845 59.83434576 -24 60 C-21 58 -21 58 -18.4375 56.625 C-15.87516219 54.91677479 -15.07369252 53.8306439 -14 51 C-13.34 51 -12.68 51 -12 51 C-12 49.35 -12 47.7 -12 46 C-10.02 46 -8.04 46 -6 46 C-5.731875 45.175 -5.46375 44.35 -5.1875 43.5 C-4 40 -4 40 -2.46875 36.8125 C0.06468023 30.08561886 -0.42078218 22.5983255 -0.3125 15.5 C-0.27927717 13.99476282 -0.24478303 12.48955313 -0.20898438 10.984375 C-0.12464864 7.32311808 -0.05757327 3.66178694 0 0 Z " fill="#4F3D44" transform="translate(226,104)"/>
<path d="M0 0 C0.66 0 1.32 0 2 0 C2.33747251 3.87465111 2.66924222 7.74977038 3 11.625 C3.09539062 12.71941406 3.19078125 13.81382813 3.2890625 14.94140625 C3.37929687 16.00488281 3.46953125 17.06835938 3.5625 18.1640625 C3.64628906 19.13811035 3.73007813 20.1121582 3.81640625 21.11572266 C4.00542023 24.08515232 4.0308649 27.02539483 4 30 C2.35 29.67 0.7 29.34 -1 29 C-3.17654714 22.47035858 -1.80976978 15.21890058 -1 8.5 C-0.90460938 7.67757812 -0.80921875 6.85515625 -0.7109375 6.0078125 C-0.47802113 4.00473174 -0.23959066 2.00229341 0 0 Z " fill="#F9F8EB" transform="translate(121,102)"/>
<path d="M0 0 C3.3125 0.4375 3.3125 0.4375 5.3125 1.4375 C4.9825 2.4275 4.6525 3.4175 4.3125 4.4375 C3.36375 4.39625 2.415 4.355 1.4375 4.3125 C-1.78994856 4.08776182 -1.78994856 4.08776182 -3.6875 6.4375 C-3.97352162 10.58259433 -3.97352162 10.58259433 -2.6875 14.4375 C-0.36593403 14.84479228 1.9693787 15.18188677 4.3125 15.4375 C4.3125 16.4275 4.3125 17.4175 4.3125 18.4375 C2.87594146 18.51881463 1.4380517 18.57683559 0 18.625 C-1.20076172 18.67720703 -1.20076172 18.67720703 -2.42578125 18.73046875 C-4.6875 18.4375 -4.6875 18.4375 -6.41796875 17.1953125 C-8.77635701 13.92985184 -9.00938016 10.38053201 -8.6875 6.4375 C-6.89882523 2.20659622 -4.61810282 0.5479105 0 0 Z " fill="#603237" transform="translate(191.6875,221.5625)"/>
<path d="M0 0 C-2.75687997 2.97335554 -5.37158606 4.90591735 -8.9375 6.8125 C-13.77422271 9.59361556 -15.96458192 12.4008817 -19 17 C-19.99 17 -20.98 17 -22 17 C-22.33 17.99 -22.66 18.98 -23 20 C-24 18 -24 18 -23 14.25 C-20.48623591 7.8964036 -14.94494471 4.05280944 -9 1 C-5.96102732 -0.04464686 -3.20065533 -0.08890709 0 0 Z " fill="#A62020" transform="translate(31,79)"/>
<path d="M0 0 C2.97 0 5.94 0 9 0 C9 0.66 9 1.32 9 2 C7.02 2 5.04 2 3 2 C3 3.32 3 4.64 3 6 C4.98 6 6.96 6 9 6 C9 6.99 9 7.98 9 9 C7.02 9 5.04 9 3 9 C3 10.65 3 12.3 3 14 C5.31 14 7.62 14 10 14 C10 14.99 10 15.98 10 17 C6.7 17 3.4 17 0 17 C0 11.39 0 5.78 0 0 Z " fill="#5B292D" transform="translate(134,223)"/>
<path d="M0 0 C6.75 0.75 6.75 0.75 9 3 C9.47674265 6.65502698 9.43320271 8.37426275 7.3125 11.4375 C6.549375 11.953125 5.78625 12.46875 5 13 C3.35 12.67 1.7 12.34 0 12 C0 8.04 0 4.08 0 0 Z " fill="#E9E9E9" transform="translate(131,189)"/>
<path d="M0 0 C0.29211698 8.86088167 -0.55203128 17.26047454 -2 26 C-5.03711821 20.53318722 -5.13893035 15.33132409 -5.0625 9.1875 C-5.05798828 8.49462891 -5.05347656 7.80175781 -5.04882812 7.08789062 C-5.03713156 5.39188932 -5.01919924 3.69593297 -5 2 C-6.65 2.33 -8.3 2.66 -10 3 C-6.63824835 -0.10315537 -4.47353123 -0.147075 0 0 Z " fill="#DED4C2" transform="translate(121,102)"/>
<path d="M0 0 C1.175625 0.0825 2.35125 0.165 3.5625 0.25 C5.5625 3.25 5.5625 3.25 5.3125 6.3125 C4.5625 9.25 4.5625 9.25 2.5625 11.25 C-0.23594834 11.60877543 -1.840808 11.58812547 -4.3125 10.1875 C-6.10060335 7.10798867 -5.18342606 4.60666727 -4.4375 1.25 C-3.4375 0.25 -3.4375 0.25 0 0 Z " fill="#F2F2F2" transform="translate(112.4375,189.75)"/>
<path d="M0 0 C2.00720923 0.28674418 4.0085944 0.61866701 6 1 C6 1.66 6 2.32 6 3 C7.32 3.66 8.64 4.32 10 5 C10 5.99 10 6.98 10 8 C3.74692761 8.83288874 -1.76817361 9.03863773 -8 8 C-8 7.34 -8 6.68 -8 6 C-7.360625 5.731875 -6.72125 5.46375 -6.0625 5.1875 C-3.66868314 4.11332248 -3.66868314 4.11332248 -3 1 C-2.34 1 -1.68 1 -1 1 C-0.67 0.67 -0.34 0.34 0 0 Z " fill="#8D4D26" transform="translate(203,134)"/>
<path d="M0 0 C0 0.66 0 1.32 0 2 C-0.804375 2.474375 -1.60875 2.94875 -2.4375 3.4375 C-5.2918076 4.79983672 -5.2918076 4.79983672 -6 8 C-12.33390548 12.73269417 -18.01910573 16.07435115 -26 15 C-23.95570847 12.80918394 -22.00528249 11.28492109 -19.3828125 9.84375 C-18.69316406 9.46089844 -18.00351562 9.07804687 -17.29296875 8.68359375 C-16.57753906 8.29300781 -15.86210938 7.90242188 -15.125 7.5 C-13.71059421 6.71937167 -12.29652393 5.93813509 -10.8828125 5.15625 C-9.87976074 4.60517578 -9.87976074 4.60517578 -8.85644531 4.04296875 C-7.25315862 3.14222694 -5.68162456 2.18539404 -4.1171875 1.21875 C-2 0 -2 0 0 0 Z " fill="#A31718" transform="translate(50,65)"/>
<path d="M0 0 C2.47436213 1.24068583 4.90888865 2.52426385 7.3203125 3.8828125 C6.9903125 5.2028125 6.6603125 6.5228125 6.3203125 7.8828125 C0.63749312 6.03259224 0.63749312 6.03259224 -1.9296875 4.8203125 C-6.08242848 3.40460535 -10.32234268 3.20432532 -14.6796875 2.8828125 C-11.18772289 -2.35513441 -5.59434844 -2.33233769 0 0 Z " fill="#A72629" transform="translate(169.6796875,4.1171875)"/>
<path d="M0 0 C0.99 0 1.98 0 3 0 C3 0.66 3 1.32 3 2 C4.32 2 5.64 2 7 2 C7 2.99 7 3.98 7 5 C5.68 5 4.36 5 3 5 C3 7.64 3 10.28 3 13 C4.32 13 5.64 13 7 13 C7 13.99 7 14.98 7 16 C4.125 16.125 4.125 16.125 1 16 C-1.58926331 13.41073669 -1.37398043 11.97294721 -1.625 8.375 C-1.69976562 7.37210938 -1.77453125 6.36921875 -1.8515625 5.3359375 C-1.90054688 4.56507813 -1.94953125 3.79421875 -2 3 C-1.34 3 -0.68 3 0 3 C0 2.01 0 1.02 0 0 Z " fill="#66383E" transform="translate(248,224)"/>
<path d="M0 0 C1.65 0 3.3 0 5 0 C5.33333333 1.66666667 5.66666667 3.33333333 6 5 C6.3403125 6.3303125 6.3403125 6.3303125 6.6875 7.6875 C6.790625 8.450625 6.89375 9.21375 7 10 C6.34 10.66 5.68 11.32 5 12 C3.35 12 1.7 12 0 12 C0 8.04 0 4.08 0 0 Z " fill="#CC8F30" transform="translate(199,107)"/>
<path d="M0 0 C3.32919716 2.62046051 3.81927691 5.39038602 4.6875 9.4375 C4.93886719 10.57058594 5.19023438 11.70367187 5.44921875 12.87109375 C6 16 6 16 6 20 C6.66 20 7.32 20 8 20 C8.625 22.3125 8.625 22.3125 9 25 C8.34 25.99 7.68 26.98 7 28 C2.83768911 18.84291604 -0.67910456 10.18656833 0 0 Z " fill="#F4F2E9" transform="translate(102,110)"/>
<path d="M0 0 C0.99 0 1.98 0 3 0 C4.15316726 6.34241995 4.09507063 12.56688704 4 19 C2.68 19 1.36 19 0 19 C0 12.73 0 6.46 0 0 Z " fill="#683B3C" transform="translate(200,221)"/>
<path d="M0 0 C0.969375 0.185625 1.93875 0.37125 2.9375 0.5625 C3.948125 0.706875 4.95875 0.85125 6 1 C6.33 0.67 6.66 0.34 7 0 C8.99958364 -0.04080783 11.00045254 -0.04254356 13 0 C12.6875 2.375 12.6875 2.375 12 5 C9 7 9 7 5.4375 6.75 C2 6 2 6 0 4 C0 2.68 0 1.36 0 0 Z " fill="#645147" transform="translate(110,161)"/>
<path d="M0 0 C2.63746863 2.57516622 3.21887499 4.54331396 3.29296875 8.109375 C3.27313353 9.65652231 3.2375101 11.20353396 3.1875 12.75 C3.17396484 13.54277344 3.16042969 14.33554688 3.14648438 15.15234375 C3.11125223 17.10185564 3.05744821 19.05101626 3 21 C2.67 21 2.34 21 2 21 C1.93941406 20.22914063 1.87882813 19.45828125 1.81640625 18.6640625 C1.73261719 17.66117188 1.64882812 16.65828125 1.5625 15.625 C1.48128906 14.62726563 1.40007812 13.62953125 1.31640625 12.6015625 C1.15034374 10.02072387 1.15034374 10.02072387 0 8 C-2.64 8 -5.28 8 -8 8 C-8 6.68 -8 5.36 -8 4 C-5.36 4 -2.72 4 0 4 C0 2.68 0 1.36 0 0 Z " fill="#CECECE" transform="translate(223,186)"/>
<path d="M0 0 C4.75 0.75 4.75 0.75 7 3 C7.46376812 10.30434783 7.46376812 10.30434783 5 14 C1.875 14.1875 1.875 14.1875 -1 14 C-1 13.01 -1 12.02 -1 11 C0.32 11 1.64 11 3 11 C2.88590407 9.54077307 2.75834456 8.08259402 2.625 6.625 C2.55539063 5.81289062 2.48578125 5.00078125 2.4140625 4.1640625 C2.17107412 1.79665809 2.17107412 1.79665809 0 0 Z " fill="#6C3C41" transform="translate(237,226)"/>
<path d="M0 0 C0 1.32 0 2.64 0 4 C-1.65 4.66 -3.3 5.32 -5 6 C-5.33 8.64 -5.66 11.28 -6 14 C-6.99 14 -7.98 14 -9 14 C-9 9.71 -9 5.42 -9 1 C-3 0 -3 0 0 0 Z " fill="#57262C" transform="translate(282,226)"/>
<path d="M0 0 C3.96 0.33 7.92 0.66 12 1 C11.67 2.65 11.34 4.3 11 6 C4.68807339 7.33521524 4.68807339 7.33521524 1.5625 5.8125 C0 4 0 4 0 0 Z " fill="#604C42" transform="translate(125,161)"/>
<path d="M0 0 C0.515625 0.2475 1.03125 0.495 1.5625 0.75 C0.41750131 4.18499608 -0.00725436 4.36663819 -3.03515625 6.01171875 C-3.75380859 6.40810547 -4.47246094 6.80449219 -5.21289062 7.21289062 C-5.96763672 7.61701172 -6.72238281 8.02113281 -7.5 8.4375 C-8.25861328 8.85322266 -9.01722656 9.26894531 -9.79882812 9.69726562 C-11.67383141 10.72321082 -13.55509343 11.73770244 -15.4375 12.75 C-15.4375 9.75 -15.4375 9.75 -13.4375 7.75 C-12.4475 7.75 -11.4575 7.75 -10.4375 7.75 C-10.416875 7.1725 -10.39625 6.595 -10.375 6 C-9.07333959 2.87601503 -7.1532776 1.98125996 -4.2265625 0.43359375 C-2.4375 -0.25 -2.4375 -0.25 0 0 Z " fill="#A20F10" transform="translate(95.4375,39.25)"/>
<path d="M0 0 C0 0.99 0 1.98 0 3 C-1.98 3.99 -3.96 4.98 -6 6 C-4.02 6.99 -2.04 7.98 0 9 C0 9.99 0 10.98 0 12 C-4 10.66666667 -8 9.33333333 -12 8 C-12 7.01 -12 6.02 -12 5 C-10.37750059 4.16180842 -8.75191503 3.3295884 -7.125 2.5 C-6.22007813 2.0359375 -5.31515625 1.571875 -4.3828125 1.09375 C-2 0 -2 0 0 0 Z " fill="#653E41" transform="translate(68,225)"/>
<path d="M0 0 C4.23429756 1.31061591 8.07407404 2.94356259 12 5 C12 5.99 12 6.98 12 8 C10.56570999 8.67354499 9.12742943 9.33859701 7.6875 10 C6.48673828 10.556875 6.48673828 10.556875 5.26171875 11.125 C3 12 3 12 0 12 C1 9 1 9 4.0625 7.3125 C5.031875 6.879375 6.00125 6.44625 7 6 C4.69 5.01 2.38 4.02 0 3 C0 2.01 0 1.02 0 0 Z " fill="#5E3638" transform="translate(162,225)"/>
<path d="M0 0 C0.33 0 0.66 0 1 0 C1.12117187 0.95261719 1.24234375 1.90523437 1.3671875 2.88671875 C1.53476563 4.14097656 1.70234375 5.39523438 1.875 6.6875 C2.03742187 7.92886719 2.19984375 9.17023438 2.3671875 10.44921875 C2.92478369 13.57795295 3.69008123 16.12148102 5 19 C0.34562821 17.53019838 0.34562821 17.53019838 -1.1484375 15.23828125 C-2.12669887 12.66697958 -2.26656503 10.68315349 -2.25 7.9375 C-2.25515625 7.08027344 -2.2603125 6.22304687 -2.265625 5.33984375 C-2 3 -2 3 0 0 Z " fill="#A6181B" transform="translate(9,248)"/>
<path d="M0 0 C2.31 0.66 4.62 1.32 7 2 C6.67 3.32 6.34 4.64 6 6 C6.66 6 7.32 6 8 6 C7.67 6.66 7.34 7.32 7 8 C3.625 8.125 3.625 8.125 0 8 C-0.66 7.34 -1.32 6.68 -2 6 C-1.44444444 1.44444444 -1.44444444 1.44444444 0 0 Z " fill="#866366" transform="translate(217,232)"/>
<path d="M0 0 C1.485 0.99 1.485 0.99 3 2 C3.40843923 4.71203652 3.13336867 7.2437142 3 10 C5.31 10 7.62 10 10 10 C10 10.99 10 11.98 10 13 C6.7 13 3.4 13 0 13 C0 8.71 0 4.42 0 0 Z " fill="#57252A" transform="translate(106,227)"/>
<path d="M0 0 C0.99 0 1.98 0 3 0 C2 3 2 3 1 5 C2.65 5 4.3 5 6 5 C5.125 9.75 5.125 9.75 4 12 C1.67843403 12.40729228 -0.6568787 12.74438677 -3 13 C-3 11.68 -3 10.36 -3 9 C-1.68 8.34 -0.36 7.68 1 7 C0.67 6.67 0.34 6.34 0 6 C-0.04080783 4.00041636 -0.04254356 1.99954746 0 0 Z " fill="#7C3C27" transform="translate(216,138)"/>
<path d="M0 0 C0.556875 0.226875 1.11375 0.45375 1.6875 0.6875 C0.62973819 4.05446012 -0.45696213 4.77272227 -3.5703125 6.609375 C-4.85346087 7.23110668 -6.14282007 7.84015262 -7.4375 8.4375 C-8.42556641 8.91123047 -8.42556641 8.91123047 -9.43359375 9.39453125 C-11.05468853 10.16983745 -12.68293584 10.93015686 -14.3125 11.6875 C-13.4453125 9.734375 -13.4453125 9.734375 -12.3125 7.6875 C-10.1875 6.9375 -10.1875 6.9375 -8.3125 6.6875 C-8.250625 6.089375 -8.18875 5.49125 -8.125 4.875 C-7.3125 2.6875 -7.3125 2.6875 -5 0.875 C-2.3125 -0.3125 -2.3125 -0.3125 0 0 Z " fill="#AA2425" transform="translate(58.3125,60.3125)"/>
<path d="M0 0 C1.2065625 0.0309375 1.2065625 0.0309375 2.4375 0.0625 C4.03830151 4.06450378 2.73029692 7.10806236 1.4375 11.0625 C0.1175 11.0625 -1.2025 11.0625 -2.5625 11.0625 C-2.75656478 9.41742782 -2.94257935 7.77140406 -3.125 6.125 C-3.22941406 5.20847656 -3.33382812 4.29195312 -3.44140625 3.34765625 C-3.48136719 2.59355469 -3.52132812 1.83945313 -3.5625 1.0625 C-2.5625 0.0625 -2.5625 0.0625 0 0 Z " fill="#64373F" transform="translate(78.5625,221.9375)"/>
<path d="M0 0 C0.66 0.33 1.32 0.66 2 1 C1 3 1 3 -1.25 4.3125 C-4.14710378 5.94335577 -4.14710378 5.94335577 -6.625 8.625 C-9 11 -9 11 -12 12 C-12 11.34 -12 10.68 -12 10 C-13.65 10.33 -15.3 10.66 -17 11 C-14.52158036 8.19503183 -11.79743793 6.67042773 -8.5 4.9375 C-5.555813 3.38230445 -2.77316705 1.84877804 0 0 Z " fill="#AA2B2A" transform="translate(84,44)"/>
<path d="M0 0 C0 0.66 0 1.32 0 2 C0.66 2.66 1.32 3.32 2 4 C0.02 4 -1.96 4 -4 4 C-4.33 4.99 -4.66 5.98 -5 7 C-7.31 7 -9.62 7 -12 7 C-12 5.02 -12 3.04 -12 1 C-10.68 1 -9.36 1 -8 1 C-7.67 2.32 -7.34 3.64 -7 5 C-6.566875 4.0409375 -6.566875 4.0409375 -6.125 3.0625 C-4.45129782 -0.005954 -3.47574769 0 0 0 Z " fill="#D59737" transform="translate(199,136)"/>
<path d="M0 0 C0.66 0.33 1.32 0.66 2 1 C2.1875 3.875 2.1875 3.875 2 7 C-1.31371 9.20914 -2.3446021 9.22481553 -6.1875 9.125 C-7.08855469 9.10695312 -7.98960938 9.08890625 -8.91796875 9.0703125 C-9.60503906 9.04710937 -10.29210937 9.02390625 -11 9 C-11 7.02 -11 5.04 -11 3 C-10.67 3 -10.34 3 -10 3 C-10 4.65 -10 6.3 -10 8 C-9.34 7.34 -8.68 6.68 -8 6 C-7.195625 5.896875 -6.39125 5.79375 -5.5625 5.6875 C-2.75009582 5.22545321 -2.75009582 5.22545321 -1.1875 2.4375 C-0.795625 1.633125 -0.40375 0.82875 0 0 Z " fill="#5C2B2F" transform="translate(100,231)"/>
<path d="M0 0 C1.485 0.99 1.485 0.99 3 2 C3.58203125 5.23046875 3.58203125 5.23046875 3.8125 9.1875 C3.90144531 10.48042969 3.99039062 11.77335938 4.08203125 13.10546875 C3.99522994 17.22646451 3.30090916 20.1274094 2 24 C1.67 24 1.34 24 1 24 C0.67 16.08 0.34 8.16 0 0 Z " fill="#A40E10" transform="translate(6,200)"/>
<path d="M0 0 C2.74792483 3.40219265 6 7.48464588 6 12 C5.01 12 4.02 12 3 12 C3 10.68 3 9.36 3 8 C1.35 8.33 -0.3 8.66 -2 9 C-2.33 9.99 -2.66 10.98 -3 12 C-3.66 12 -4.32 12 -5 12 C-4.54738642 10.56068883 -4.08767021 9.12361001 -3.625 7.6875 C-3.24214844 6.48673828 -3.24214844 6.48673828 -2.8515625 5.26171875 C-2 3 -2 3 0 0 Z " fill="#DCA138" transform="translate(191,107)"/>
<path d="M0 0 C0.66 0.33 1.32 0.66 2 1 C0.99806563 4.79303725 0.18975773 7.71536341 -2 11 C-2.99 11 -3.98 11 -5 11 C-5.33 11.99 -5.66 12.98 -6 14 C-7 12 -7 12 -6.58203125 10.1953125 C-5.00151124 5.94315207 -3.58905693 2.97025401 0 0 Z " fill="#A62020" transform="translate(14,85)"/>
<path d="M0 0 C0.99 0.33 1.98 0.66 3 1 C3.125 3.375 3.125 3.375 3 6 C1 8 1 8 -1.1640625 8.1953125 C-2.38222656 8.16050781 -2.38222656 8.16050781 -3.625 8.125 C-4.44226563 8.10695312 -5.25953125 8.08890625 -6.1015625 8.0703125 C-6.72804688 8.04710937 -7.35453125 8.02390625 -8 8 C-8 6.68 -8 5.36 -8 4 C-5.36 4.33 -2.72 4.66 0 5 C0 3.35 0 1.7 0 0 Z " fill="#5B2C30" transform="translate(127,232)"/>
<path d="M0 0 C0 0.99 0 1.98 0 3 C-6.25307239 3.83288874 -11.76817361 4.03863773 -18 3 C-18 2.34 -18 1.68 -18 1 C-11.97403427 -0.0712828 -6.11090483 -0.09945415 0 0 Z " fill="#A8662D" transform="translate(213,139)"/>
<path d="M0 0 C0.12375 0.639375 0.2475 1.27875 0.375 1.9375 C0.58125 2.618125 0.7875 3.29875 1 4 C1.66 4.33 2.32 4.66 3 5 C2.67 6.98 2.34 8.96 2 11 C1.34 9.68 0.68 8.36 0 7 C-2.97 7 -5.94 7 -9 7 C-9 6.01 -9 5.02 -9 4 C-6.03 4 -3.06 4 0 4 C0 2.68 0 1.36 0 0 Z " fill="#EEEEEE" transform="translate(163,185)"/>
<path d="M0 0 C1.98 0 3.96 0 6 0 C4.68 0.33 3.36 0.66 2 1 C2 2.32 2 3.64 2 5 C3.32 5.33 4.64 5.66 6 6 C4.68 6.33 3.36 6.66 2 7 C2 7.99 2 8.98 2 10 C3.32 10 4.64 10 6 10 C6 10.66 6 11.32 6 12 C4.02 12 2.04 12 0 12 C0 8.04 0 4.08 0 0 Z " fill="#E8B039" transform="translate(207,107)"/>
<path d="M0 0 C1.485 0.99 1.485 0.99 3 2 C3 2.66 3 3.32 3 4 C3.66 4 4.32 4 5 4 C6.25664978 6.90600261 7 8.79604584 7 12 C6.01 12.33 5.02 12.66 4 13 C0.88303339 8.66335081 0.44033187 5.19591612 0 0 Z " fill="#AD3034" transform="translate(308,85)"/>
<path d="M0 0 C0.33 0 0.66 0 1 0 C1 2.97 1 5.94 1 9 C0.67 8.34 0.34 7.68 0 7 C-2.97 7 -5.94 7 -9 7 C-9.33 6.01 -9.66 5.02 -10 4 C-7.03 4 -4.06 4 -1 4 C-0.67 2.68 -0.34 1.36 0 0 Z " fill="#F4F4F4" transform="translate(224,195)"/>
<path d="M0 0 C2.01822917 0.26041667 4.03645833 0.52083333 6.0546875 0.78125 C8.00498344 1.0372485 8.00498344 1.0372485 10 1 C10 2.32 10 3.64 10 5 C8.37581255 5.08090971 6.75048255 5.13914995 5.125 5.1875 C4.22007812 5.22230469 3.31515625 5.25710937 2.3828125 5.29296875 C1.20332031 5.14794922 1.20332031 5.14794922 0 5 C-0.66 4.01 -1.32 3.02 -2 2 C-1.34 2 -0.68 2 0 2 C0 1.34 0 0.68 0 0 Z " fill="#663B41" transform="translate(150,235)"/>
<path d="M0 0 C-0.99 0.66 -1.98 1.32 -3 2 C-2.01 2.66 -1.02 3.32 0 4 C0 4.66 0 5.32 0 6 C-2.64 6 -5.28 6 -8 6 C-8.33 7.32 -8.66 8.64 -9 10 C-9.32523926 6.42236811 -9.42956587 4.60457419 -7.3125 1.625 C-4.61209763 -0.27258004 -3.22939919 -0.35882213 0 0 Z " fill="#97797C" transform="translate(266,226)"/>
<path d="M0 0 C-3.46741134 2.95749791 -6.86873527 5.07848152 -11 7 C-11.33 6.01 -11.66 5.02 -12 4 C-7.62086703 -0.52510407 -6.25424506 -1.22365664 0 0 Z " fill="#AA2E2E" transform="translate(192,340)"/>
<path d="M0 0 C3.5 0.1875 3.5 0.1875 5.5 1.1875 C5.17 2.1775 4.84 3.1675 4.5 4.1875 C3.63375 4.14625 2.7675 4.105 1.875 4.0625 C-1.62358468 4.19207721 -4.24551597 4.94769656 -7.5 6.1875 C-4.73076923 0.25343407 -4.73076923 0.25343407 0 0 Z " fill="#643B3F" transform="translate(191.5,221.8125)"/>
<path d="M0 0 C2.97 0 5.94 0 9 0 C8.01 3.63 7.02 7.26 6 11 C5.34 10.67 4.68 10.34 4 10 C4 7.03 4 4.06 4 1 C2.68 0.67 1.36 0.34 0 0 Z " fill="#F0EBDE" transform="translate(119,101)"/>
<path d="M0 0 C2.0625 0.4375 2.0625 0.4375 4 1 C4 3.31 4 5.62 4 8 C2.35 7.67 0.7 7.34 -1 7 C-1.04254356 5.00045254 -1.04080783 2.99958364 -1 1 C-0.67 0.67 -0.34 0.34 0 0 Z " fill="#F4F1F2" transform="translate(236,229)"/>
<path d="M0 0 C-1.98 0.99 -1.98 0.99 -4 2 C-3.34 2.66 -2.68 3.32 -2 4 C-4.64 4.99 -7.28 5.98 -10 7 C-10.66 5.68 -11.32 4.36 -12 3 C-10.75823305 2.29773859 -9.50614401 1.61370891 -8.25 0.9375 C-7.20585937 0.36322266 -7.20585937 0.36322266 -6.140625 -0.22265625 C-3.63859372 -1.1312406 -2.4667645 -0.88336837 0 0 Z " fill="#A72423" transform="translate(160,4)"/>
<path d="M0 0 C0.66 0.33 1.32 0.66 2 1 C1.6875 2.875 1.6875 2.875 1 5 C-2.4352048 7.29013653 -3.985331 7.17842973 -8 7 C-6.88424427 3.65273281 -6.48655378 3.37920252 -3.5625 1.75 C-2.386875 1.1725 -1.21125 0.595 0 0 Z " fill="#A41919" transform="translate(196,333)"/>
<path d="M0 0 C0.33 0.99 0.66 1.98 1 3 C2.98 3 4.96 3 7 3 C7 4.32 7 5.64 7 7 C5.02 7 3.04 7 1 7 C0.67 8.32 0.34 9.64 0 11 C-0.84098656 6.98195309 -1.05404945 3.98196457 0 0 Z " fill="#815D61" transform="translate(109,226)"/>
<path d="M0 0 C0 0.66 0 1.32 0 2 C-2 3.625 -2 3.625 -4 5 C-2.7625 5.680625 -2.7625 5.680625 -1.5 6.375 C-0.675 6.91125 0.15 7.4475 1 8 C1 8.66 1 9.32 1 10 C-2.40312738 8.94124926 -5.01353231 7.99097846 -8 6 C-8 5.01 -8 4.02 -8 3 C-2.25 0 -2.25 0 0 0 Z " fill="#5E4F45" transform="translate(108,148)"/>
<path d="M0 0 C2 2 2 2 2 5 C2.66 5 3.32 5 4 5 C4 6.32 4 7.64 4 9 C4.66 9 5.32 9 6 9 C6.625 11.3125 6.625 11.3125 7 14 C6.01 15.485 6.01 15.485 5 17 C2.33961901 11.4373852 1.03767051 6.06732052 0 0 Z " fill="#ECE9E0" transform="translate(104,121)"/>
<path d="M0 0 C1.32 0 2.64 0 4 0 C3.67 0.66 3.34 1.32 3 2 C2.34 2 1.68 2 1 2 C0.67 2.66 0.34 3.32 0 4 C1.32 4.66 2.64 5.32 4 6 C4.042721 7.66611905 4.04063832 9.33382885 4 11 C3 12 3 12 0.4375 12.0625 C-0.366875 12.041875 -1.17125 12.02125 -2 12 C-2 11.34 -2 10.68 -2 10 C-0.35 10 1.3 10 3 10 C1.35 8.02 -0.3 6.04 -2 4 C-1.34 2.68 -0.68 1.36 0 0 Z " fill="#E9AE38" transform="translate(217,107)"/>
<path d="M0 0 C4.75 0.75 4.75 0.75 7 3 C5.6875 5.5 5.6875 5.5 4 8 C3.01 8 2.02 8 1 8 C0.67 8.66 0.34 9.32 0 10 C0.29296875 7.98177083 0.5859375 5.96354167 0.87890625 3.9453125 C1.1684297 1.91859333 1.1684297 1.91859333 0 0 Z " fill="#CABEAC" transform="translate(134,103)"/>
<path d="M0 0 C0.66 0.33 1.32 0.66 2 1 C0.41641358 4.16717283 -0.45263699 5.73268318 -3.6875 7.3125 C-4.450625 7.539375 -5.21375 7.76625 -6 8 C-6.99 7.01 -7.98 6.02 -9 5 C-7.54735962 4.1361871 -6.0876837 3.28419546 -4.625 2.4375 C-3.40683594 1.72400391 -3.40683594 1.72400391 -2.1640625 0.99609375 C-1.44992188 0.66738281 -0.73578125 0.33867187 0 0 Z " fill="#A71D1E" transform="translate(236,310)"/>
<path d="M0 0 C0.66 0.33 1.32 0.66 2 1 C0.41641358 4.16717283 -0.45263699 5.73268318 -3.6875 7.3125 C-4.450625 7.539375 -5.21375 7.76625 -6 8 C-6.66 7.34 -7.32 6.68 -8 6 C-5.54080489 3.3651481 -3.42227589 1.25483449 0 0 Z " fill="#A6181A" transform="translate(276,287)"/>
<path d="M0 0 C0.66 0.33 1.32 0.66 2 1 C1.75390625 2.859375 1.75390625 2.859375 1 5 C-0.84765625 6.265625 -0.84765625 6.265625 -3.0625 7.25 C-4.16271484 7.75273437 -4.16271484 7.75273437 -5.28515625 8.265625 C-6.13400391 8.62914062 -6.13400391 8.62914062 -7 9 C-6.07162671 4.35813357 -3.7214829 2.72908746 0 0 Z " fill="#AC2E2E" transform="translate(253,300)"/>
<path d="M0 0 C1.22589844 0.15275391 1.22589844 0.15275391 2.4765625 0.30859375 C3.41628906 0.43427734 3.41628906 0.43427734 4.375 0.5625 C4.375 1.5525 4.375 2.5425 4.375 3.5625 C2.91757537 3.64346803 1.45887193 3.70167774 0 3.75 C-0.81210937 3.78480469 -1.62421875 3.81960937 -2.4609375 3.85546875 C-3.17507813 3.75878906 -3.88921875 3.66210938 -4.625 3.5625 C-5.285 2.5725 -5.945 1.5825 -6.625 0.5625 C-4.10446405 -0.69776798 -2.7707902 -0.35624445 0 0 Z " fill="#663B3E" transform="translate(264.625,236.4375)"/>
<path d="M0 0 C3.37503669 1.1858237 5.64722731 2.27573689 8 5 C5.75 6.1875 5.75 6.1875 3 7 C0.6875 5.625 0.6875 5.625 -1 4 C-0.67 2.68 -0.34 1.36 0 0 Z " fill="#AD2D2F" transform="translate(177,9)"/>
<path d="M0 0 C0 1.32 0 2.64 0 4 C-3.3 4 -6.6 4 -10 4 C-7.16124653 -0.25813021 -4.8137938 -0.13010254 0 0 Z " fill="#950608" transform="translate(165,3)"/>
<path d="M0 0 C0.66 0.33 1.32 0.66 2 1 C0.3125 4 0.3125 4 -2 7 C-4.75 7.375 -4.75 7.375 -7 7 C-7.33 6.34 -7.66 5.68 -8 5 C-6.71475739 4.13619741 -5.42157581 3.28419631 -4.125 2.4375 C-3.04605469 1.72400391 -3.04605469 1.72400391 -1.9453125 0.99609375 C-1.30335938 0.66738281 -0.66140625 0.33867187 0 0 Z " fill="#A31818" transform="translate(294,276)"/>
<path d="M0 0 C0.33 0.66 0.66 1.32 1 2 C0.34 2.66 -0.32 3.32 -1 4 C-4.625 3.625 -4.625 3.625 -8 3 C-7.67 2.01 -7.34 1.02 -7 0 C-4.30234372 -1.34882814 -2.84835666 -0.80338265 0 0 Z " fill="#92512B" transform="translate(198,150)"/>
<path d="M0 0 C0.33 0 0.66 0 1 0 C1.33 3.96 1.66 7.92 2 12 C1.01 11.67 0.02 11.34 -1 11 C-2.38550197 8.22899606 -2.1877467 6.0665294 -2 3 C-1.34 2.01 -0.68 1.02 0 0 Z " fill="#9C0204" transform="translate(9,248)"/>
<path d="M0 0 C5.75 -0.125 5.75 -0.125 8 1 C7.67 1.99 7.34 2.98 7 4 C6.05125 3.979375 5.1025 3.95875 4.125 3.9375 C1.09333717 3.77448174 1.09333717 3.77448174 -1 5 C-0.67 3.35 -0.34 1.7 0 0 Z " fill="#60343A" transform="translate(122,222)"/>
<path d="M0 0 C2.97 0 5.94 0 9 0 C9 1.32 9 2.64 9 4 C6.03 4 3.06 4 0 4 C0 2.68 0 1.36 0 0 Z " fill="#B0ADA7" transform="translate(204,167)"/>
<path d="M0 0 C0 2 0 2 -1.3125 3.4375 C-1.869375 3.953125 -2.42625 4.46875 -3 5 C-3.556875 5.556875 -4.11375 6.11375 -4.6875 6.6875 C-5.120625 7.120625 -5.55375 7.55375 -6 8 C-6.99 7.01 -7.98 6.02 -9 5 C-6.45523312 2.20075644 -3.92372883 0 0 0 Z " fill="#AA2B29" transform="translate(138,14)"/>
<path d="M0 0 C0.33 0 0.66 0 1 0 C0.67 2.31 0.34 4.62 0 7 C-2.31 7 -4.62 7 -7 7 C-7.33 6.01 -7.66 5.02 -8 4 C-5.36 4 -2.72 4 0 4 C0 2.68 0 1.36 0 0 Z " fill="#D5CBCE" transform="translate(269,230)"/>
<path d="M0 0 C2.875 0.25 2.875 0.25 6 1 C7.375 3.0625 7.375 3.0625 8 5 C6.02 6.32 4.04 7.64 2 9 C1.34 8.67 0.68 8.34 0 8 C1.65 6.35 3.3 4.7 5 3 C2.525 2.01 2.525 2.01 0 1 C0 0.67 0 0.34 0 0 Z " fill="#67584E" transform="translate(138,148)"/>
<path d="M0 0 C0.66 0.33 1.32 0.66 2 1 C1.3125 3.375 1.3125 3.375 0 6 C-2.625 7.3125 -2.625 7.3125 -5 8 C-5.33 6.68 -5.66 5.36 -6 4 C-4.02 2.68 -2.04 1.36 0 0 Z " fill="#A92828" transform="translate(101,34)"/>
<path d="M0 0 C0.71929687 0.29003906 1.43859375 0.58007812 2.1796875 0.87890625 C2.90414062 1.16636719 3.62859375 1.45382813 4.375 1.75 C4.92929688 1.97816406 5.48359375 2.20632812 6.0546875 2.44140625 C6.0546875 3.43140625 6.0546875 4.42140625 6.0546875 5.44140625 C4.57268848 4.99231564 3.09413514 4.53184061 1.6171875 4.06640625 C0.79347656 3.81117188 -0.03023437 3.5559375 -0.87890625 3.29296875 C-2.9453125 2.44140625 -2.9453125 2.44140625 -3.9453125 0.44140625 C-1.9453125 -0.55859375 -1.9453125 -0.55859375 0 0 Z " fill="#623736" transform="translate(61.9453125,231.55859375)"/>
<path d="M0 0 C1.98 0 3.96 0 6 0 C6.33 1.65 6.66 3.3 7 5 C5.35 5 3.7 5 2 5 C1.34 3.35 0.68 1.7 0 0 Z " fill="#B37733" transform="translate(201,123)"/>
<path d="M0 0 C0.99 0 1.98 0 3 0 C3 0.99 3 1.98 3 3 C-1.95 5.475 -1.95 5.475 -7 8 C-6.34 6.68 -5.68 5.36 -5 4 C-3.67405895 3.63837971 -2.34061543 3.30271961 -1 3 C-0.67 2.01 -0.34 1.02 0 0 Z " fill="#9D0B0C" transform="translate(86,44)"/>
<path d="M0 0 C5.75 1.625 5.75 1.625 8 5 C7.34 5 6.68 5 6 5 C6 5.66 6 6.32 6 7 C2.58841744 5.86280581 1.88145399 4.95657056 0 2 C0 1.34 0 0.68 0 0 Z " fill="#AB292C" transform="translate(9,265)"/>
<path d="M0 0 C0 1.32 0 2.64 0 4 C-1.98 4.66 -3.96 5.32 -6 6 C-6.33 4.35 -6.66 2.7 -7 1 C-4.50935112 0.31292445 -2.62113708 0 0 0 Z " fill="#7B565D" transform="translate(282,226)"/>
<path d="M0 0 C-0.8125 1.9375 -0.8125 1.9375 -2 4 C-2.99 4.33 -3.98 4.66 -5 5 C-5 4.34 -5 3.68 -5 3 C-6.65 3.33 -8.3 3.66 -10 4 C-6.87839899 0.56623888 -4.64008112 -1.54669371 0 0 Z " fill="#AD3330" transform="translate(77,51)"/>
<path d="M0 0 C-1.45255699 3.82946843 -3.42895561 5.12050295 -7 7 C-6.67 5.02 -6.34 3.04 -6 1 C-3.92446352 0.4465236 -2.15634036 0 0 0 Z " fill="#A10C0C" transform="translate(22,83)"/>
<path d="M0 0 C0 1.65 0 3.3 0 5 C-3.65316671 3.75023244 -4.78065836 3.32901247 -7 0 C-4.3333581 -1.33332095 -2.83319697 -0.67102033 0 0 Z " fill="#B2302F" transform="translate(127,333)"/>
<path d="M0 0 C2.475 0.495 2.475 0.495 5 1 C4.67 2.32 4.34 3.64 4 5 C2.68 5 1.36 5 0 5 C0 3.35 0 1.7 0 0 Z " fill="#EEE8E9" transform="translate(93,232)"/>
<path d="M0 0 C0.99 0 1.98 0 3 0 C3 2.31 3 4.62 3 7 C2.01 7.33 1.02 7.66 0 8 C0 5.36 0 2.72 0 0 Z " fill="#5B2D31" transform="translate(200,221)"/>
<path d="M0 0 C1.65 0 3.3 0 5 0 C5 0.66 5 1.32 5 2 C5.66 2.33 6.32 2.66 7 3 C5.68 3 4.36 3 3 3 C3 3.99 3 4.98 3 6 C2.34 6 1.68 6 1 6 C1 5.01 1 4.02 1 3 C-0.32 2.67 -1.64 2.34 -3 2 C-2.01 2 -1.02 2 0 2 C0 1.34 0 0.68 0 0 Z " fill="#D6D2CE" transform="translate(122,158)"/>
<path d="M0 0 C0.99 0.33 1.98 0.66 3 1 C2.67 2.32 2.34 3.64 2 5 C0.68 5.33 -0.64 5.66 -2 6 C-2 2 -2 2 0 0 Z " fill="#AC6F2F" transform="translate(215,145)"/>
<path d="M0 0 C0.8971875 0.309375 0.8971875 0.309375 1.8125 0.625 C0.75 2.625 0.75 2.625 -1.1875 4.625 C-4.875 4.875 -4.875 4.875 -8.1875 4.625 C-3.2421875 -0.55580357 -3.2421875 -0.55580357 0 0 Z " fill="#AE3736" transform="translate(32.1875,75.375)"/>
<path d="M0 0 C0 0.66 0 1.32 0 2 C-1.64333504 3.03789581 -3.31243867 4.03567924 -5 5 C-5.66 5.66 -6.32 6.32 -7 7 C-8.32 6.34 -9.64 5.68 -11 5 C-9.54462432 4.16151196 -8.08559627 3.32936066 -6.625 2.5 C-5.81289063 2.0359375 -5.00078125 1.571875 -4.1640625 1.09375 C-2 0 -2 0 0 0 Z " fill="#B03636" transform="translate(50,65)"/>
<path d="M0 0 C0.66 0.33 1.32 0.66 2 1 C2.33 1.99 2.66 2.98 3 4 C-1.75 7 -1.75 7 -4 7 C-4 4 -4 4 -2 1.8125 C-1.34 1.214375 -0.68 0.61625 0 0 Z " fill="#AF3233" transform="translate(267,292)"/>
<path d="M0 0 C1.98 0.66 3.96 1.32 6 2 C5.01 2.495 5.01 2.495 4 3 C4 4.65 4 6.3 4 8 C2.35 6.35 0.7 4.7 -1 3 C-0.67 2.01 -0.34 1.02 0 0 Z " fill="#64343B" transform="translate(123,229)"/>
<path d="M0 0 C1.98 0.495 1.98 0.495 4 1 C4 2.32 4 3.64 4 5 C2.35 4.67 0.7 4.34 -1 4 C-0.67 2.68 -0.34 1.36 0 0 Z " fill="#6F5D52" transform="translate(116,150)"/>
<path d="M0 0 C0.33 0.66 0.66 1.32 1 2 C3.52733235 2.65555119 3.52733235 2.65555119 6 3 C6 4.65 6 6.3 6 8 C3.69 6.02 1.38 4.04 -1 2 C-0.67 1.34 -0.34 0.68 0 0 Z " fill="#6F2F30" transform="translate(192,152)"/>
<path d="M0 0 C2.97 0 5.94 0 9 0 C8.01 0.33 7.02 0.66 6 1 C5.67 2.65 5.34 4.3 5 6 C4.67 4.68 4.34 3.36 4 2 C2.68 1.67 1.36 1.34 0 1 C0 0.67 0 0.34 0 0 Z " fill="#6E2F2D" transform="translate(203,121)"/>
<path d="M0 0 C0.66 0 1.32 0 2 0 C1.9375 1.8125 1.9375 1.8125 1 4 C-2.5625 5.75 -2.5625 5.75 -6 7 C-5.25 5.0625 -5.25 5.0625 -4 3 C-1.875 2.25 -1.875 2.25 0 2 C0 1.34 0 0.68 0 0 Z " fill="#9E080A" transform="translate(50,65)"/>
<path d="M0 0 C-1.0975223 2.99324263 -1.67682892 3.84610901 -4.625 5.25 C-5.40875 5.4975 -6.1925 5.745 -7 6 C-7 5.01 -7 4.02 -7 3 C-6.34 3 -5.68 3 -5 3 C-5 2.34 -5 1.68 -5 1 C-3 0 -3 0 0 0 Z " fill="#9F0A0C" transform="translate(72,54)"/>
<path d="M0 0 C0.66 0.99 1.32 1.98 2 3 C-0.90600261 4.25664978 -2.79604584 5 -6 5 C-5.67 4.01 -5.34 3.02 -5 2 C-2.4375 0.8125 -2.4375 0.8125 0 0 Z " fill="#633A3B" transform="translate(168,232)"/>
<path d="M0 0 C2 3 2 3 2 7 C0.68 7 -0.64 7 -2 7 C-1.125 1.125 -1.125 1.125 0 0 Z " fill="#DED6D7" transform="translate(78,226)"/>
<path d="M0 0 C0 1.65 0 3.3 0 5 C-1.65 5.66 -3.3 6.32 -5 7 C-4.39816251 4.97954558 -3.72693904 2.97888961 -3 1 C-1 0 -1 0 0 0 Z " fill="#A92625" transform="translate(37,72)"/>
<path d="M0 0 C2.31 0.33 4.62 0.66 7 1 C7 1.99 7 2.98 7 4 C6.01 4.33 5.02 4.66 4 5 C2.68 3.35 1.36 1.7 0 0 Z " fill="#633339" transform="translate(262,227)"/>
<path d="M0 0 C2.475 0.495 2.475 0.495 5 1 C5 1.99 5 2.98 5 4 C3.35 4 1.7 4 0 4 C0 2.68 0 1.36 0 0 Z " fill="#E1DADA" transform="translate(93,225)"/>
<path d="M0 0 C2.31 0 4.62 0 7 0 C7.33 0.99 7.66 1.98 8 3 C5.36 3 2.72 3 0 3 C0 2.01 0 1.02 0 0 Z " fill="#B4B2AB" transform="translate(194,168)"/>
<path d="M0 0 C0.99 0 1.98 0 3 0 C3 1.65 3 3.3 3 5 C1.68 5 0.36 5 -1 5 C-0.67 3.35 -0.34 1.7 0 0 Z " fill="#68554C" transform="translate(129,150)"/>
<path d="M0 0 C0.99 0 1.98 0 3 0 C3.33 1.32 3.66 2.64 4 4 C2.68 4.33 1.36 4.66 0 5 C-0.5625 3.0625 -0.5625 3.0625 -1 1 C-0.67 0.67 -0.34 0.34 0 0 Z " fill="#AB7031" transform="translate(190,144)"/>
<path d="M0 0 C1.98 0.495 1.98 0.495 4 1 C3.67 2.32 3.34 3.64 3 5 C1.68 5 0.36 5 -1 5 C-0.67 3.35 -0.34 1.7 0 0 Z " fill="#A76B31" transform="translate(191,129)"/>
<path d="M0 0 C0.99 0.495 0.99 0.495 2 1 C2 1.99 2 2.98 2 4 C3.32 4 4.64 4 6 4 C6 4.66 6 5.32 6 6 C4.02 6 2.04 6 0 6 C0 4.02 0 2.04 0 0 Z " fill="#E6A930" transform="translate(207,113)"/>
<path d="M0 0 C0.33 0.99 0.66 1.98 1 3 C-0.8125 4.0625 -0.8125 4.0625 -3 5 C-3.99 4.67 -4.98 4.34 -6 4 C-4 1 -4 1 -1.875 0.3125 C-1.25625 0.209375 -0.6375 0.10625 0 0 Z " fill="#9E090B" transform="translate(107,33)"/>
<path d="M0 0 C0.66 0.33 1.32 0.66 2 1 C2.33 1.99 2.66 2.98 3 4 C1.35 4.66 -0.3 5.32 -2 6 C-1.125 1.125 -1.125 1.125 0 0 Z " fill="#AF3435" transform="translate(213,323)"/>
<path d="M0 0 C-0.33 1.65 -0.66 3.3 -1 5 C-2.32 5 -3.64 5 -5 5 C-4.625 3.0625 -4.625 3.0625 -4 1 C-2 0 -2 0 0 0 Z " fill="#5A2D2F" transform="translate(75,235)"/>
<path d="M0 0 C1.98 0.495 1.98 0.495 4 1 C4 1.99 4 2.98 4 4 C2.35 4.33 0.7 4.66 -1 5 C-0.67 3.35 -0.34 1.7 0 0 Z " fill="#57292F" transform="translate(170,229)"/>
<path d="M0 0 C1.65 0 3.3 0 5 0 C4.34 1.98 3.68 3.96 3 6 C2.67 5.01 2.34 4.02 2 3 C1.34 3 0.68 3 0 3 C0 2.01 0 1.02 0 0 Z " fill="#663432" transform="translate(214,150)"/>
<path d="M0 0 C0.33 1.32 0.66 2.64 1 4 C-0.32 4.33 -1.64 4.66 -3 5 C-3.33 3.68 -3.66 2.36 -4 1 C-2 0 -2 0 0 0 Z " fill="#B37333" transform="translate(218,131)"/>
<path d="M0 0 C2.625 0.9375 2.625 0.9375 5 2 C3.1875 3.5625 3.1875 3.5625 1 5 C0.01 4.67 -0.98 4.34 -2 4 C-2 3.01 -2 2.02 -2 1 C-1.34 0.67 -0.68 0.34 0 0 Z " fill="#AB2A2E" transform="translate(196,20)"/>
<path d="M0 0 C1.32 0.66 2.64 1.32 4 2 C1.94766315 4.2477975 0.99332739 5.0022242 -2 6 C-1.49396008 3.83125748 -1.00016187 2.00032373 0 0 Z " fill="#AD3232" transform="translate(296,275)"/>
<path d="M0 0 C2.9375 0.8125 2.9375 0.8125 6 2 C6.33 2.99 6.66 3.98 7 5 C1.25 3.25 1.25 3.25 -1 1 C-0.67 0.67 -0.34 0.34 0 0 Z " fill="#6C5D51" transform="translate(102,153)"/>
<path d="M0 0 C0.66 0.33 1.32 0.66 2 1 C1.6875 2.9375 1.6875 2.9375 1 5 C0.01 5.33 -0.98 5.66 -2 6 C-2.99 5.01 -3.98 4.02 -5 3 C-2.625 1.4375 -2.625 1.4375 0 0 Z " fill="#A92929" transform="translate(91,40)"/>
<path d="M0 0 C0.66 0.33 1.32 0.66 2 1 C1.67 1.99 1.34 2.98 1 4 C-1.5625 5.1875 -1.5625 5.1875 -4 6 C-3.67 4.68 -3.34 3.36 -3 2 C-2.01 2 -1.02 2 0 2 C0 1.34 0 0.68 0 0 Z " fill="#9E0A0B" transform="translate(129,19)"/>
<path d="M0 0 C-1.65 0.66 -3.3 1.32 -5 2 C-5.66 1.34 -6.32 0.68 -7 0 C-3.86650268 -1.04449911 -3.01031744 -0.93423645 0 0 Z M-6 2 C-4.68 2.66 -3.36 3.32 -2 4 C-3.65 4.33 -5.3 4.66 -7 5 C-6.67 4.01 -6.34 3.02 -6 2 Z " fill="#A93C3C" transform="translate(160,4)"/>
</svg>
